<svg xmlns="http://www.w3.org/2000/svg" version="1.1" xmlns:xlink="http://www.w3.org/1999/xlink" xmlns:svgjs="http://svgjs.dev/svgjs" width="1000" height="1000"><g clip-path="url(#SvgjsClipPath1164)"><rect width="1000" height="1000" fill="#ffffff"></rect><g transform="matrix(1.8115942028985508,0,0,1.8115942028985508,0,0)"><svg xmlns="http://www.w3.org/2000/svg" version="1.1" xmlns:xlink="http://www.w3.org/1999/xlink" xmlns:svgjs="http://svgjs.dev/svgjs" width="552" height="552"><svg xmlns="http://www.w3.org/2000/svg" xmlns:xlink="http://www.w3.org/1999/xlink" width="552" height="552">
	<clipPath id="cl_3">
		<rect width="552" height="552"></rect>
	</clipPath>
	<g clip-path="url(#cl_3)">
		<path transform="matrix(1.06348 0 0 1.06348 -266.5 -269)" d="M422.516 394.104C424.144 394.124 425.946 394.237 427.51 394.698C433.563 396.482 437.283 402.369 440.317 407.47C435.45 409.795 430.551 411.945 425.34 413.378C417.476 411.845 412.09 406.736 406.302 401.623C411.528 398.429 416.401 395.239 422.516 394.104Z"></path>
		<path fill="#075ABE" transform="matrix(1.06348 0 0 1.06348 -266.5 -269)" d="M501.216 259.195C535.419 256.989 571.87 263.449 603.771 275.713Q606.293 276.67 608.795 277.68Q611.296 278.69 613.776 279.753Q616.256 280.815 618.713 281.928Q621.17 283.042 623.603 284.207Q626.036 285.372 628.444 286.588Q630.852 287.804 633.234 289.07Q635.617 290.336 637.972 291.651Q640.327 292.967 642.654 294.331Q644.981 295.696 647.279 297.109Q649.577 298.522 651.845 299.983Q654.113 301.444 656.35 302.952Q658.587 304.46 660.791 306.014Q662.996 307.569 665.168 309.169Q667.339 310.77 669.477 312.415Q671.615 314.06 673.718 315.75Q675.821 317.44 677.887 319.174Q679.954 320.907 681.985 322.684Q684.015 324.46 686.007 326.279Q688 328.098 689.954 329.957Q691.908 331.817 693.822 333.718Q695.737 335.618 697.611 337.558Q699.486 339.498 701.319 341.477Q703.152 343.456 704.944 345.473Q706.735 347.49 708.484 349.544Q710.233 351.598 711.939 353.688Q713.644 355.779 715.306 357.904Q716.967 360.029 718.583 362.189Q720.2 364.349 721.771 366.542Q723.342 368.735 724.866 370.961Q726.391 373.186 727.868 375.443Q729.346 377.7 730.776 379.988Q732.206 382.275 733.588 384.592C739.221 394.194 743.79 404.331 748.302 414.494Q741.391 417.981 734.696 421.866C704.499 439.715 688.466 467.944 679.959 501.109C678.982 505.143 678.215 509.248 677.334 513.307Q677.4 511.177 677.398 509.047Q677.38 506.103 677.29 503.161Q677.2 500.219 677.038 497.279Q676.876 494.34 676.642 491.406Q676.407 488.471 676.101 485.544Q675.795 482.616 675.418 479.697Q675.04 476.777 674.591 473.868Q674.141 470.959 673.621 468.061Q673.1 465.164 672.509 462.28Q671.917 459.397 671.255 456.528Q670.594 453.66 669.861 450.809Q669.129 447.958 668.328 445.125Q667.526 442.293 666.655 439.481Q665.784 436.669 664.844 433.879Q663.904 431.09 662.896 428.324Q661.888 425.558 660.813 422.818Q659.737 420.078 658.595 417.365Q657.453 414.652 656.244 411.967Q655.036 409.283 653.762 406.629Q652.488 403.976 651.149 401.354Q649.811 398.732 648.408 396.144Q647.006 393.556 645.54 391.003Q644.074 388.45 642.547 385.934Q641.019 383.418 639.43 380.94Q637.841 378.462 636.191 376.024Q634.542 373.585 632.833 371.188Q631.125 368.791 629.358 366.437Q627.591 364.082 625.767 361.772Q623.943 359.461 622.062 357.197Q620.182 354.932 618.247 352.713Q616.312 350.495 614.323 348.325Q612.333 346.155 610.292 344.035Q608.25 341.914 606.157 339.844C563.273 297.058 501.773 268.863 440.688 268.973C459.344 261.823 481.468 260.466 501.216 259.195Z"></path>
		<path transform="matrix(1.06348 0 0 1.06348 -266.5 -269)" d="M409.63 280.595C413.855 282.508 417.402 287.382 420.311 290.82C402.292 297.946 385.806 305.491 370.608 317.942Q369.256 319.029 367.931 320.149Q366.606 321.27 365.31 322.423Q364.014 323.576 362.747 324.762Q361.48 325.947 360.243 327.164Q359.006 328.381 357.801 329.628Q356.595 330.875 355.42 332.152Q354.246 333.43 353.104 334.736Q351.962 336.042 350.853 337.376Q349.744 338.711 348.669 340.072Q347.594 341.434 346.553 342.822Q345.512 344.21 344.507 345.624Q343.501 347.038 342.531 348.477Q341.561 349.915 340.628 351.378Q339.694 352.84 338.798 354.325Q337.901 355.811 337.042 357.318Q336.183 358.825 335.361 360.354Q334.54 361.882 333.758 363.43Q332.975 364.979 332.231 366.546Q331.488 368.114 330.784 369.7Q330.08 371.285 329.416 372.888Q328.751 374.491 328.128 376.11Q327.504 377.729 326.921 379.363Q326.338 380.997 325.796 382.645Q325.254 384.293 324.753 385.955Q324.253 387.616 323.794 389.289Q323.335 390.962 322.919 392.647Q322.502 394.331 322.127 396.025Q321.753 397.719 321.421 399.422Q321.089 401.125 320.8 402.836Q320.511 404.546 320.265 406.264Q320.019 407.981 319.816 409.704Q319.613 411.427 319.453 413.155Q319.286 415.047 319.165 416.943Q319.044 418.839 318.971 420.737Q318.897 422.635 318.871 424.534Q318.844 426.433 318.864 428.333Q318.885 430.232 318.952 432.131Q319.019 434.029 319.134 435.925Q319.248 437.821 319.409 439.714Q319.57 441.607 319.778 443.495Q319.986 445.383 320.24 447.265Q320.495 449.148 320.796 451.023Q321.097 452.899 321.444 454.766Q321.791 456.634 322.185 458.492Q322.578 460.35 323.017 462.198Q323.456 464.046 323.941 465.883Q324.426 467.72 324.956 469.544Q325.486 471.368 326.061 473.178Q326.636 474.989 327.256 476.784Q327.875 478.58 328.539 480.36Q329.203 482.139 329.911 483.902Q330.618 485.665 331.369 487.41Q332.12 489.154 332.914 490.88Q333.708 492.606 334.545 494.311Q335.381 496.017 336.26 497.701Q337.138 499.385 338.058 501.047Q338.977 502.709 339.938 504.348Q340.898 505.987 341.899 507.601Q342.9 509.216 343.94 510.805Q344.981 512.394 346.06 513.957Q347.14 515.521 348.257 517.056Q349.375 518.592 350.53 520.1Q351.686 521.608 352.878 523.086Q354.07 524.565 355.299 526.014C383.511 559.723 424.911 581.334 467.146 591.747C486.042 596.405 505.742 598.975 525.103 600.71C503.923 602.721 483.364 607.059 466.374 620.724Q464.889 621.939 463.466 623.224Q462.042 624.51 460.683 625.864Q459.324 627.217 458.033 628.636Q456.742 630.054 455.521 631.534Q454.301 633.014 453.154 634.551Q452.007 636.089 450.937 637.681Q449.866 639.273 448.875 640.915Q447.884 642.557 446.974 644.246Q446.064 645.934 445.237 647.665Q444.411 649.396 443.67 651.166Q442.929 652.935 442.275 654.738Q441.622 656.542 441.057 658.375Q440.492 660.208 440.017 662.067Q439.543 663.925 439.16 665.805Q438.776 667.684 438.485 669.58Q438.194 671.476 437.996 673.384Q437.799 675.19 437.692 677.004Q437.586 678.818 437.57 680.635Q437.553 682.452 437.628 684.267Q437.702 686.083 437.867 687.892Q438.032 689.702 438.286 691.501Q438.541 693.3 438.885 695.084Q439.229 696.868 439.662 698.633Q440.094 700.398 440.614 702.139Q441.134 703.88 441.74 705.593Q442.346 707.306 443.037 708.987Q443.727 710.667 444.501 712.311Q445.274 713.955 446.129 715.559Q446.983 717.163 447.916 718.722Q448.85 720.281 449.859 721.791Q450.869 723.302 451.953 724.76Q453.037 726.218 454.192 727.621Q454.785 728.355 455.395 729.074Q456.006 729.793 456.634 730.497Q457.263 731.201 457.909 731.889Q458.554 732.576 459.217 733.248Q459.88 733.919 460.559 734.574Q461.238 735.229 461.933 735.867Q462.628 736.505 463.339 737.125Q464.05 737.745 464.776 738.347Q465.502 738.95 466.243 739.534Q466.984 740.118 467.739 740.683Q468.495 741.249 469.264 741.795Q470.033 742.342 470.815 742.869Q471.598 743.396 472.393 743.903Q473.188 744.411 473.996 744.898Q474.804 745.386 475.623 745.853Q476.443 746.32 477.274 746.767Q478.105 747.214 478.946 747.64Q479.788 748.066 480.64 748.471Q481.493 748.875 482.355 749.259Q483.217 749.643 484.088 750.005Q484.959 750.366 485.839 750.706Q486.719 751.047 487.607 751.365Q488.495 751.683 489.391 751.979Q490.287 752.275 491.19 752.548Q492.093 752.822 493.002 753.073Q493.912 753.323 494.827 753.552Q495.743 753.78 496.663 753.985Q497.584 754.191 498.51 754.373Q499.436 754.555 500.365 754.715Q501.295 754.874 502.229 755.01Q503.162 755.146 504.099 755.259Q505.036 755.372 505.975 755.461Q506.932 755.557 507.892 755.628Q508.852 755.699 509.812 755.746Q510.774 755.793 511.735 755.816Q512.697 755.839 513.66 755.837Q514.622 755.835 515.584 755.809Q516.545 755.783 517.506 755.732Q518.467 755.682 519.426 755.607Q520.386 755.532 521.343 755.433Q522.3 755.334 523.254 755.211Q524.208 755.088 525.159 754.94Q526.11 754.793 527.057 754.622Q528.004 754.45 528.946 754.255Q529.888 754.059 530.825 753.84Q531.762 753.621 532.693 753.378Q533.624 753.135 534.548 752.869Q535.473 752.603 536.39 752.313Q537.308 752.024 538.218 751.711Q539.128 751.398 540.029 751.062Q540.931 750.727 541.824 750.368Q542.717 750.01 543.601 749.629Q544.484 749.248 545.358 748.845Q546.231 748.441 547.094 748.016Q547.958 747.591 548.81 747.144Q549.662 746.697 550.502 746.229Q551.343 745.76 552.171 745.271Q553 744.782 553.815 744.271Q554.631 743.761 555.433 743.23Q556.236 742.699 557.025 742.148Q557.813 741.597 558.588 741.027Q559.363 740.456 560.123 739.866Q560.883 739.275 561.627 738.666Q562.372 738.057 563.101 737.429C583.217 720.369 593.094 696.494 595.125 670.59C597.151 644.76 591.369 618.252 580.917 594.68Q579.863 592.327 578.753 590Q577.644 587.674 576.479 585.374Q575.314 583.074 574.095 580.803Q572.875 578.531 571.602 576.29Q570.329 574.048 569.003 571.838Q567.677 569.627 566.298 567.449Q564.92 565.27 563.49 563.125Q562.06 560.98 560.579 558.87Q559.099 556.76 557.568 554.685Q556.038 552.611 554.458 550.574Q552.878 548.536 551.251 546.537Q549.623 544.538 547.948 542.579Q546.273 540.619 544.552 538.7Q542.831 536.78 541.065 534.903Q539.299 533.025 537.488 531.19Q535.678 529.355 533.824 527.563Q531.97 525.772 530.074 524.025Q528.178 522.278 526.241 520.577Q524.304 518.876 522.327 517.222Q520.35 515.568 518.334 513.961Q516.318 512.354 514.265 510.795Q512.211 509.237 510.121 507.728Q508.031 506.219 505.906 504.761Q503.78 503.302 501.62 501.894Q499.461 500.487 497.268 499.131Q495.076 497.775 492.851 496.472Q490.627 495.169 488.372 493.919Q486.118 492.669 483.834 491.473Q481.55 490.278 479.238 489.137Q476.927 487.996 474.588 486.91Q472.25 485.825 469.887 484.795Q467.523 483.766 465.136 482.793Q455.032 478.621 444.646 475.214Q434.259 471.808 423.647 469.186C399.64 463.157 367.809 461.291 350.958 441.355C340.006 428.397 337.406 411.959 338.854 395.471C357.132 396.92 378.092 394.802 392.288 382.085C398.857 376.2 404.926 369.769 412.613 365.3C425.989 357.522 443.07 356.495 457.854 360.371C460.547 354.538 463.599 349.375 469.08 345.717C474.556 342.062 480.97 341.138 487.364 342.42C493.685 343.688 499.568 347.251 503.059 352.747Q503.372 353.236 503.66 353.741Q503.947 354.246 504.208 354.766Q504.469 355.285 504.702 355.817Q504.935 356.35 505.14 356.893Q505.345 357.437 505.522 357.991Q505.698 358.545 505.846 359.107Q505.993 359.669 506.111 360.238Q506.229 360.807 506.317 361.381Q506.405 361.956 506.463 362.534Q506.52 363.112 506.548 363.693Q506.576 364.273 506.573 364.854Q506.57 365.435 506.537 366.016Q506.504 366.596 506.441 367.174Q506.378 367.751 506.284 368.325Q506.191 368.898 506.068 369.466Q505.945 370.034 505.792 370.595C503.506 379.199 497.058 383.727 489.749 387.822C485.321 384.155 480.768 380.905 475.649 378.26Q474.057 377.446 472.424 376.717Q470.791 375.988 469.122 375.346Q467.452 374.704 465.752 374.15Q464.051 373.597 462.324 373.134Q460.597 372.671 458.847 372.299Q457.098 371.927 455.332 371.648Q453.565 371.369 451.787 371.184Q450.008 370.998 448.222 370.906C414.568 368.854 408.765 395.138 381.143 404.04C380.707 408.916 380.219 414.093 377.991 418.528C374.738 425.005 368.891 428.131 362.285 430.258C381.543 448.585 414.937 450.71 439.749 458.39C462.044 465.291 483.666 473.526 503.486 486.02C549.703 513.303 586.81 557.675 602.758 609.239C617.6 657.225 611.287 696.935 588.247 740.556C636.957 726.526 686.069 686.05 713.368 643.845Q715.012 641.314 716.594 638.743Q718.175 636.172 719.691 633.563Q721.208 630.954 722.66 628.308Q724.111 625.661 725.497 622.98Q726.882 620.299 728.2 617.584Q729.519 614.869 730.769 612.122Q732.02 609.375 733.202 606.598Q734.384 603.821 735.497 601.015Q736.609 598.21 737.652 595.377Q738.695 592.545 739.667 589.688Q740.639 586.83 741.539 583.949Q742.44 581.069 743.269 578.167Q744.098 575.265 744.855 572.343Q745.611 569.421 746.295 566.482Q746.979 563.542 747.59 560.586Q748.2 557.63 748.737 554.66Q749.274 551.69 749.738 548.708Q750.201 545.726 750.59 542.733Q750.979 539.74 751.293 536.738Q751.608 533.736 751.848 530.728Q752.088 527.719 752.253 524.705Q752.418 521.692 752.508 518.675Q752.598 515.658 752.614 512.64Q752.629 509.622 752.569 506.604Q752.51 503.587 752.375 500.572Q752.241 497.556 752.031 494.545Q751.822 491.535 751.538 488.53Q751.254 485.525 750.895 482.528Q750.537 479.531 750.104 476.544Q749.671 473.558 749.164 470.582Q748.657 467.607 748.077 464.645Q747.496 461.683 746.842 458.737C749.22 452.555 753.385 446.969 757.181 441.583C769.606 497.652 770.663 550.62 749.373 604.783Q748.205 607.745 746.965 610.677Q745.724 613.609 744.412 616.51Q743.099 619.411 741.715 622.278Q740.331 625.145 738.876 627.977Q737.422 630.81 735.898 633.605Q734.374 636.4 732.781 639.157Q731.188 641.914 729.528 644.63Q727.867 647.347 726.14 650.021Q724.413 652.696 722.62 655.327Q720.827 657.958 718.97 660.544Q717.113 663.13 715.192 665.669Q713.271 668.209 711.289 670.7Q709.306 673.19 707.262 675.632Q705.218 678.073 703.114 680.463Q701.01 682.852 698.848 685.189Q696.686 687.527 694.467 689.809Q692.248 692.092 689.973 694.32Q687.698 696.547 685.368 698.717Q683.039 700.888 680.656 703Q678.274 705.112 675.84 707.164Q673.406 709.217 670.922 711.208Q668.438 713.2 665.906 715.13Q663.373 717.059 660.794 718.926Q658.215 720.792 655.59 722.594Q652.965 724.396 650.297 726.133Q647.628 727.869 644.917 729.539Q642.207 731.209 639.456 732.812Q636.704 734.414 633.914 735.948Q631.125 737.482 628.298 738.947Q625.471 740.411 622.608 741.805Q619.746 743.199 616.85 744.522Q613.954 745.845 611.026 747.096Q608.173 748.302 605.291 749.439Q602.41 750.575 599.501 751.64Q596.592 752.705 593.659 753.699Q590.725 754.693 587.767 755.614Q584.81 756.536 581.831 757.385Q578.852 758.233 575.853 759.009Q572.854 759.784 569.837 760.486Q566.82 761.188 563.787 761.815Q560.753 762.443 557.705 762.996Q554.658 763.549 551.597 764.027Q548.537 764.506 545.466 764.909Q542.394 765.312 539.314 765.64Q536.234 765.967 533.147 766.219Q530.059 766.472 526.967 766.648Q523.874 766.824 520.778 766.925Q517.682 767.026 514.585 767.05Q511.487 767.075 508.39 767.024Q505.293 766.972 502.198 766.845Q499.103 766.718 496.012 766.515Q492.921 766.312 489.836 766.034Q486.751 765.755 483.674 765.401Q480.597 765.047 477.529 764.617Q474.461 764.188 471.405 763.684Q468.349 763.179 465.306 762.6Q462.263 762.021 459.235 761.367Q456.207 760.714 453.196 759.986Q450.185 759.258 447.193 758.457Q444.201 757.656 441.229 756.782Q438.258 755.907 435.308 754.961Q432.359 754.014 429.434 752.995Q426.509 751.976 423.609 750.886Q420.71 749.796 417.838 748.635Q414.927 747.453 412.046 746.201Q409.164 744.949 406.314 743.627Q403.464 742.305 400.647 740.915Q397.83 739.524 395.047 738.066Q392.264 736.607 389.518 735.082Q386.771 733.557 384.062 731.965Q381.354 730.373 378.684 728.716Q376.015 727.06 373.387 725.339Q370.758 723.617 368.173 721.833Q365.587 720.049 363.045 718.202Q360.503 716.356 358.007 714.448Q355.511 712.54 353.061 710.573Q350.612 708.605 348.211 706.579Q345.811 704.552 343.46 702.468Q341.109 700.384 338.809 698.244Q336.509 696.103 334.262 693.907Q332.015 691.712 329.822 689.462Q327.629 687.213 325.491 684.911Q323.353 682.609 321.271 680.256Q319.19 677.902 317.166 675.499Q315.142 673.096 313.177 670.645Q311.212 668.194 309.307 665.695Q307.402 663.197 305.558 660.653Q303.715 658.109 301.933 655.522Q300.152 652.934 298.433 650.304Q296.715 647.673 295.061 645.002Q293.407 642.331 291.818 639.621Q290.23 636.91 288.707 634.162Q287.185 631.414 285.729 628.63Q284.274 625.845 282.887 623.027Q281.499 620.208 280.181 617.356Q278.862 614.505 277.613 611.622Q276.394 608.766 275.245 605.88Q274.096 602.995 273.017 600.082Q271.939 597.17 270.932 594.232Q269.925 591.294 268.991 588.332Q268.056 585.371 267.194 582.387Q266.331 579.403 265.542 576.4Q264.753 573.396 264.038 570.374Q263.322 567.352 262.681 564.313Q262.039 561.274 261.472 558.221Q260.905 555.167 260.413 552.101Q259.92 549.034 259.503 545.957Q259.085 542.879 258.743 539.792Q258.401 536.706 258.135 533.611Q257.868 530.517 257.677 527.417Q257.486 524.318 257.371 521.214Q257.256 518.11 257.216 515.005Q257.177 511.899 257.213 508.794Q257.249 505.688 257.362 502.585Q257.474 499.481 257.662 496.381Q257.85 493.281 258.113 490.187Q258.377 487.092 258.716 484.005Q259.055 480.918 259.47 477.84Q259.884 474.762 260.373 471.695Q260.863 468.628 261.427 465.574Q261.991 462.52 262.63 459.481Q263.268 456.441 263.981 453.419Q264.693 450.396 265.479 447.391Q266.266 444.387 267.125 441.402Q267.984 438.418 268.916 435.455Q269.848 432.492 270.852 429.553Q271.856 426.615 272.931 423.701Q274.007 420.787 275.153 417.901Q276.292 415.036 277.501 412.199Q278.711 409.363 279.99 406.558Q281.269 403.752 282.618 400.979Q283.967 398.207 285.383 395.468Q286.8 392.73 288.285 390.027Q289.769 387.324 291.32 384.66Q292.871 381.995 294.487 379.369Q296.104 376.743 297.785 374.158Q299.466 371.574 301.21 369.031Q302.955 366.489 304.762 363.991Q306.569 361.492 308.438 359.04Q310.306 356.587 312.235 354.181Q314.164 351.776 316.152 349.419Q318.139 347.062 320.185 344.755Q322.231 342.447 324.333 340.192Q326.435 337.936 328.592 335.733Q330.75 333.53 332.961 331.382Q335.173 329.233 337.437 327.14Q339.701 325.047 342.016 323.01Q344.331 320.974 346.696 318.995Q349.061 317.017 351.474 315.098Q353.888 313.179 356.348 311.32Q358.808 309.461 361.313 307.664Q363.819 305.867 366.368 304.132Q368.917 302.398 371.509 300.727Q374.1 299.056 376.732 297.45Q379.364 295.844 382.035 294.304Q384.706 292.764 387.415 291.29Q390.123 289.817 392.868 288.411Q395.612 287.005 398.39 285.667Q401.168 284.33 403.978 283.061Q406.789 281.793 409.63 280.595Z"></path>
	</g>
</svg></svg></g></g><defs><clipPath id="SvgjsClipPath1164"><rect width="1000" height="1000" x="0" y="0" rx="500" ry="500"></rect></clipPath></defs></svg>