<svg xmlns="http://www.w3.org/2000/svg" width="530" height="530">
  <path fill="#284163" d="M0 0h530v530H0V0Zm199.37 33.1c-2.55-2.57-4.96-4.36-8.78-4.44h-.51l-.52.02-.5.05-.52.08-.5.1-.5.13q-.25.06-.49.15l-.48.17-.47.2q-.24.1-.47.22l-.45.25-.44.27-.42.29-.41.3-.4.34-.37.35c-2.1 2.03-3.33 5-3.33 7.92 0 .85 0 1.74.15 2.57-2-.43-14.66 3.5-18 4.1-.9-4.82-3.07-8.84-7.22-11.63l-.7-.46-.74-.42q-.37-.2-.76-.38-.38-.18-.77-.34-.39-.17-.78-.31-.4-.15-.8-.27-.4-.13-.82-.23l-.82-.19-.83-.15-.84-.1q-.42-.05-.84-.07-.43-.03-.85-.03l-.84.01q-.43.02-.85.06l-.84.1q-.42.06-.83.14-.41.08-.81.18-.41.1-.8.23l-.8.26-.78.31-.76.34-.74.39-.73.41-.7.46q-.34.23-.68.49-.33.25-.65.52t-.62.55q-.31.28-.6.58-.3.3-.57.62-.28.3-.54.64-.26.32-.5.66l-.47.7q-.23.34-.44.7l-.4.74-.35.75q-.18.38-.33.77l-.29.79-.24.8q-.12.4-.21.8-.1.4-.17.82l-.13.82-.08.83q-.04.42-.05.84v.83q0 .42.03.84l.08.83.12.82.15.82.2.79q.1.39.23.77l.27.77.3.74.35.74.39.7.41.7.45.67.49.65q.25.32.51.62.27.31.55.6.28.3.58.57.29.28.6.54.3.26.63.5.32.25.65.48l.68.44.72.42.74.39q.37.18.76.34.38.17.77.31.4.15.79.27l.8.24.8.19q.42.09.83.15l.82.12q.42.05.83.07.42.03.84.03h.83l.83-.05q.42-.03.83-.09.41-.05.82-.13.41-.07.82-.17c.22-.05.43-.1.65-.17 3.14 7.16 6.49 14.27 9.5 21.47-4.69.68-13.86.6-17.78 2.19-4.8-1.82-9.55-4.51-14.22-6.68.14-3.08-.2-5.9-2.12-8.44-1.84-2.44-4.82-3.88-7.82-4.22l-.56-.05-.56-.02h-.56l-.55.04-.56.06-.55.1q-.27.04-.54.11l-.54.15-.53.17-.52.2q-.26.1-.51.23l-.5.25q-.25.13-.48.28-.24.14-.47.3l-.46.32-.43.35a10.49 10.49 0 0 0-3.88 7.45c-.19 3.45 1.31 6.3 3.6 8.77-8.56 2.67-15.87 8.35-21.92 14.8-1.23 1.3-2.67 2.62-3.57 4.17v.59l.24.2c-3.5 1.42-6.28 3.45-7.85 7.02a12.56 12.56 0 0 0-.78 7.89c-1.3 1.64-1.78 4.42-2.33 6.44-2.96 10.86-4.11 21.13-2.8 32.37a72.7 72.7 0 0 0 5.59 20.83c-3.2 1.25-6.46 2.42-9.55 3.91-15.7 7.55-28.54 19.64-35.62 35.75-7.22 16.38-6.93 35.07-.37 51.61a71.7 71.7 0 0 0 22.8 29.77c3.55 2.64 7.4 4.72 11.13 7.05-5.03 1.85-9.46 4.54-11.77 9.58l-.3.72-.28.72q-.13.37-.24.75l-.2.75-.16.76q-.07.38-.12.77l-.08.77-.04.78q-.02.39 0 .78 0 .39.03.78l.08.77.11.77.16.76.2.76q.1.37.23.74.12.37.27.73c3.05 7.86 10.9 13.52 18.39 16.72 5.76 2.46 12.44 4.28 18.73 4.45l.02 6.2c-22.37-.07-44.8.32-67.16-.1-.26 5.53-.1 11.14-.1 16.67l.02 28.78-.05 96.46 472.02-.06.02-141.82H468.4l-.28-.82c-5.83-15.4-19.7-24.49-33.98-31.06 6.43-8.84 10.36-17.95 9.02-29.06-1.56-12.96-10-23.28-19.94-31.08 3.23-4.64 6.52-9.15 9.07-14.23 8.12-16.2 8.3-35.16 2.63-52.14-5.6-16.8-17.92-28.53-33.47-36.28 2.45-4.46 4.57-8.78 6.12-13.64 5.25-16.44 2.86-34.19-5.1-49.35-8.22-15.64-23.25-27.5-40.08-32.67-13.08-4.02-28.23-4.06-41.3.09-5.25 1.67-10.2 4.05-15.06 6.64-2.18-13.66-6.56-24.98-17.88-33.69-7.95-6.1-21-9.8-30.92-8.32-.83.12-1.11.1-1.63.79a13.2 13.2 0 0 0-.95-3.56 12.75 12.75 0 0 0-7.53-6.73 12.08 12.08 0 0 0-9.47.51c-3.74 1.88-5.99 5.18-7.2 9.08-1.93.46-3.98 1.67-5.85 2.44-6.01-1.52-11.46-4.2-17.8-4.09-1.87.04-6.06.2-7.42 1.61Z"/>
  <path fill="#96D3AD" d="M179.96 42.07a15.4 15.4 0 0 1-.15-2.57c0-2.92 1.24-5.89 3.33-7.92q.18-.18.38-.35l.39-.33.4-.31.43-.3.44-.26.45-.25.47-.22.47-.2q.24-.1.48-.17.24-.09.5-.15l.49-.13.5-.1.51-.08.51-.05.52-.02h.51c3.82.08 6.23 1.87 8.78 4.44 1.64 3.02 2.45 5.95 1.39 9.35l-.17.5-.2.49-.21.47-.24.47-.26.45-.3.44q-.14.22-.3.42l-.33.41-.34.4-.37.36-.39.36-.4.33-.42.32-.44.29-.44.27q-.23.13-.47.24c-1.63.83-3.24 1.06-5.03 1.29-1.72 5.47-4.07 10.8-6.24 16.1-4.9 11.95-10.2 23.73-14.9 35.76 10.72 23.09 19.7 47.13 29.29 70.7l47.77 115.3q5.45-2.35 10.97-4.53c-4.92-10.22-9.18-20.84-13.63-31.27q-17.78-42.16-34.59-84.72l-14.81-35.64c-2.47-5.96-5.5-11.97-7.05-18.25-.43-1.74.67-4.55 1.26-6.2 1.25-3.48 2.88-6.89 4.34-10.28l7.77-18.06 8.8-20.57c1.5-3.46 2.87-7.16 4.63-10.48 5.4-2.89 11.22-5.24 16.76-7.86-.66-2.37-1.03-4.38-.37-6.82 1.2-3.9 3.45-7.2 7.2-9.08 2.98-1.5 6.33-1.59 9.46-.5a12.75 12.75 0 0 1 7.53 6.72c.52 1.15.76 2.32.95 3.56.03 3.97-.48 7.6-3.38 10.62-2.44 2.53-6 3.96-9.5 3.93-3.74-.03-6.98-1.77-9.5-4.42q-.6-.62-1.14-1.28-7.91 3.8-15.93 7.35c-5.31 13.36-11.28 26.8-16.99 40.03-2.54 5.88-5.4 11.78-7.6 17.79-.52 1.4-1.26 3.34-1.14 4.84.31 3.94 7 18.12 8.92 22.82q4.16 10.23 8.47 20.4c1.1 2.63 2.06 5.36 3.24 7.93l.35.7c5.12-13.55 10.82-26.88 16.1-40.36l5.32-13.7c.89-2.3 1.73-5.22 3.07-7.3l.32-.02c2.62-.28 10.17-5.2 13.3-6.53l1.43 2.52c-4.27 2.33-8.67 5.14-13.2 6.9-2.23 7.3-5.58 14.44-8.37 21.55-5.33 13.59-10.59 27.27-16.45 40.63q2.4 6.4 5.1 12.66c7.36-19.91 16.28-39.28 23.94-59.08 10.37 2.87 20.43 6.9 30.67 10.18.4-3.24 1.46-6.26 4.17-8.32a11.43 11.43 0 0 1 8.56-1.97l.54.1.54.12q.27.07.53.16l.52.18.51.2.5.23.5.26.47.28.46.3.44.34q.22.17.42.35l.41.37.39.4.37.4.34.44.33.44.27.44.26.44.23.45.2.47.2.48.16.48.13.5q.07.24.12.49l.09.5.06.5.04.52q.02.25.02.51l-.01.51q-.01.26-.04.51l-.05.5-.09.51c-.6 3.14-2.66 5.63-5.3 7.33a9.85 9.85 0 0 1-7.66 1.26c-2.67-.6-5.35-2.3-6.82-4.65-.55-.87-1-1.82-1.4-2.77-9.78-3.06-19.45-6.54-29.2-9.7-4.02 9.66-8.25 19.3-11.92 29.1 9.9 2.83 19.5 6.71 29.31 9.83 8.34-2.96 16.74-7.63 24.91-10.34l.07 3.2q-7.35 3.14-14.75 6.14c-3.3 1.35-6.9 2.56-9.93 4.44-4.75-1.49-9.4-3.3-14.1-4.93-5.51-1.9-11.1-3.61-16.56-5.69-3.7 9.07-7.35 18.17-11.33 27.12 3.27 8.9 7.06 17.6 10.63 26.4l20.5 49.82c3.03 7.27 6.68 14.36 9.44 21.74q7.12-3.31 14.31-6.47c-.88-2.33-1.78-4.63-2.8-6.9-2.42.5-4.55.64-6.7-.76a8.38 8.38 0 0 1-3.8-5.3 9.45 9.45 0 0 1 1.41-7.13 8.42 8.42 0 0 1 5.7-3.29 8.94 8.94 0 0 1 6.94 1.8 8.42 8.42 0 0 1 3.21 5.68 8.58 8.58 0 0 1-2.15 6.3c-.42.48-.88.91-1.35 1.33.85 2.36 1.7 4.7 2.73 6.98 6.55-2.76 13.34-5.27 19.75-8.31-2-6.09-4.5-12-6.85-17.95-1.78-4.5-3.43-9.09-5.34-13.53-6.7-3.26-12.98-7.28-19.45-10.96a9.7 9.7 0 0 1-4.53 1.34c-1.8 5.35-4.24 11.65-7.44 16.29-2.14-.8-7.98-2.06-9.1-4.12-.23-.4-.12-.65-.08-1.08.52-.75.89-1.23 1.86-1.4 1.8-.3 4.46 1.48 6.03 2.32a86.37 86.37 0 0 0 5.5-12.59c-1.7-.98-2.86-2.03-3.43-3.97q-.08-.29-.13-.58t-.07-.59l-.02-.59q.01-.3.05-.59.03-.3.1-.58.07-.29.16-.57.1-.28.22-.55t.27-.53a6.67 6.67 0 0 1 4.17-3.09c1.28-.32 2.62-.08 3.9.13 1.9-4.31 3.59-8.84 5.83-12.99-1.52-1.24-2.56-2.43-2.8-4.46a6.45 6.45 0 0 1 1.45-4.81q.21-.26.44-.5.24-.23.5-.43.25-.21.53-.4.27-.17.57-.33.29-.15.6-.27.3-.12.62-.2.32-.1.64-.16l.66-.08c1.56-.1 3.09.33 4.25 1.4a7.55 7.55 0 0 1 2.32 4.99l-.03 1.14.01.53q6.82 3.41 13.58 6.95c1.34-1.53 2.66-2.87 4.84-3.03a5.91 5.91 0 0 1 4.36 1.61 6.63 6.63 0 0 1 2.21 4.79 5.73 5.73 0 0 1-1.74 4.27c-1.52 1.43-3.55 1.9-5.57 1.83-2.57 6.88-6.23 13.33-8.76 20.23 4.64 10.46 8.38 21.3 12.87 31.83l17.86-7.74c2.36-1.04 4.95-2.61 7.43-3.28a4.18 4.18 0 0 1 2.51.14c.94.36 1.66 1.1 2.03 2.03.38 1 .42 2.38-.06 3.35-.67 1.32-2.19 2.2-3.48 2.8-6.03 2.81-12.4 5.07-18.5 7.75l-78.92 33.86c-9.9 4.27-19.87 8.4-29.7 12.8l-13.16 5.79c-2.97 1.3-6.01 2.93-9.16 3.77a4.2 4.2 0 0 1-3.51-.39 3.56 3.56 0 0 1-1.68-2.49c-.2-1.2.08-2.4.83-3.38a7.07 7.07 0 0 1 2.4-1.9c3.08-1.61 6.59-2.75 9.8-4.05q7.59-3.12 15.1-6.4c-2.32-6.5-5.2-12.9-7.88-19.27-1.97-4.69-3.78-9.62-6.06-14.16q-9.51-4.72-19.13-9.24c-1.5 1.59-2.72 2.54-5 2.55a6.63 6.63 0 0 1-4.78-2.02 5.76 5.76 0 0 1-1.49-4.32c.1-1.73.77-3.46 2.15-4.56 1.62-1.3 3.65-1.43 5.63-1.5.27 0 .57.09.82-.02.77-.31 4.25-11.58 4.87-13.14-1.54-1.34-2.52-2.78-2.65-4.88q-.02-.33 0-.65 0-.32.05-.64t.13-.63q.08-.31.2-.61.1-.3.25-.6.14-.28.31-.55.18-.28.38-.53t.42-.48a6.48 6.48 0 0 1 4.72-1.92c.7.03 1.37.25 2.07.36.72-2 1.65-3.92 2.4-5.92-1.77-1.15-4.87-2.56-5.36-4.79-.13-.59-.05-.71.2-1.23.9-.46 1.65-.4 2.6-.11 1.88.6 3.54 1.99 4.98 3.31 1.84-1.2 7.9-5.72 9.91-5.43.6.09 1.02.53 1.22 1.08.23.67.16 1.11-.06 1.76-2.35 2.6-7.59 5-10.73 6.85q-1.09 3.03-2.31 6c.99 1.93 1.4 3.38 1.45 5.56 4.7 1.64 9.44 4.06 13.8 6.45 1.65-1.32 3.3-2.2 5.48-1.93q.3.04.6.11t.6.17q.29.1.57.23.28.13.54.29.27.15.52.33.25.19.47.4.23.2.44.43l.4.47q.17.24.32.5.16.25.29.52l.23.55q.1.29.17.57l.12.59q.05.3.06.6.02.3 0 .59 0 .3-.05.6a6.26 6.26 0 0 1-2.8 4.26c-.86.56-1.9.9-2.87 1.24-3.1 6.24-5.9 12.62-8.88 18.9 4.6 10.8 8.87 21.84 13.71 32.52 7.05-3.07 14.2-5.9 21.23-9a33.08 33.08 0 0 0-2.82-6.96c-3.52.14-6.17.13-8.96-2.38a7.93 7.93 0 0 1-2.66-5.84 9.96 9.96 0 0 1 2.52-7.05 9.48 9.48 0 0 1 6.72-2.75l.48.02.48.04.48.07.47.09.47.11.46.14.46.17.44.18.43.21.43.23.4.26.4.27q.2.14.39.3l.36.3.35.34.34.35a9.02 9.02 0 0 1 2.43 6.36c-.12 2.83-1.7 5.26-3.78 7.1l2.8 7.2c5.28-2.38 10.62-5 16.13-6.78q-10.04-22.47-19.3-45.27c-3.69-8.97-7.2-18.1-11.18-26.94l-41-20.93-9.75 23.24c-1.29 3.07-2.31 6.46-3.83 9.4-2.28 1.03-22.65 8.14-23.47 7.77-.43-.2-.78-.58-.98-1.01-.1-.24-.12-.49-.14-.74 1.36-2.08 18.69-6.85 22.16-8.3 4.46-10.55 9.1-21.1 13.16-31.8-8.17-4.43-16.43-9.32-24.96-12.98l-12.08 18.43c-2.05 3.12-3.92 6.66-6.47 9.4.74 3.5.58 6.59-1.5 9.67l-.34.46-.35.45-.37.43-.4.41q-.2.2-.42.39-.2.19-.43.37l-.45.35-.48.32-.48.3-.5.27-.51.25q-.26.12-.53.22l-.53.2-.55.17q-.27.08-.55.14l-.56.11c-2.94.53-6.08-.02-8.5-1.81a11.57 11.57 0 0 1-4.36-7.7l-.06-.58-.03-.57v-.58l.02-.57.05-.57.09-.57.1-.56.14-.56.17-.55.2-.54q.1-.27.22-.53l.24-.52q.13-.26.28-.5.14-.26.3-.5.15-.24.32-.47.16-.24.34-.46l.36-.44.39-.42.4-.4q.21-.2.43-.38.21-.18.44-.35l.46-.34q.23-.16.48-.3.24-.16.49-.3l.5-.25.52-.24q.26-.11.53-.2l.54-.19.54-.16.56-.12.56-.1.56-.07.55-.05.56-.01.56.01.55.04.55.07q.28.04.55.1l.54.12.54.15.52.18.52.2.5.23.5.25.48.28.47.3.45.33.43.35c.75.62 1.45 1.37 2.06 2.12q9.6-14.25 18.88-28.7c13.8 6.84 27.38 14.26 41.02 21.42l27.4 14.04c-2.01-4.5-3.6-9.23-5.74-13.65-8.12-3.56-15.88-7.88-23.71-12.03l-28.47-15.05c-5.32-2.84-10.64-6.09-16.12-8.58-5.34 2.6-10.9 4.9-16.18 7.61-.18 5.18-1.38 9.66-5.32 13.28q-.32.3-.66.57-.33.28-.68.54l-.7.5-.74.47-.75.43-.78.4-.8.35-.8.31q-.41.15-.83.27-.42.13-.84.23-.42.11-.85.2-.42.08-.85.14-.43.06-.87.1-.43.05-.86.07l-.87.02q-.44 0-.87-.03a16.85 16.85 0 0 1-11.8-5.59 15.5 15.5 0 0 1-4.08-11.54c.3-4.56 2.23-8.8 5.7-11.8 3.53-3.06 8.13-4.88 12.82-4.48l.82.08.82.13.82.17.8.2.8.25.77.29q.39.15.77.32t.75.36l.73.4q.36.2.7.43l.7.47.66.5.63.53q.32.27.62.56l.58.6.55.61a21.15 21.15 0 0 1 3.51 6.44c5.55-2.42 11.26-4.9 16.57-7.8l66.63 34.79-15-36.62c-3.26-8.07-6.23-16.47-9.9-24.34-4.5-1.72-8.83-3.93-13.19-6q-11.4-5.35-22.63-11.03c-7.6-3.76-15.66-7.07-23-11.3-7.1 3.12-14.06 6.71-20.97 10.23.3 4.21.22 7.86-2.73 11.24a13 13 0 0 1-9.26 4.33c-3.54.1-7.07-1.38-9.6-3.84a14.24 14.24 0 0 1-3.62-5.95c-.58-2.7-.35-5.36.78-7.9 1.57-3.56 4.35-5.6 7.85-7 1.75-.44 3.56-.72 5.36-.54 4.56.46 7.58 3.12 10.35 6.47 7.25-3.18 14.17-7.06 21.41-10.23 2.46.88 4.86 2.18 7.22 3.32q6.63 3.18 13.22 6.46a1880.72 1880.72 0 0 0 37.48 18.1c-3.81-9.22-7.49-18.52-11.88-27.49-13.2-6.75-27.04-12.35-40.32-18.97q-.4.64-.85 1.25a11.58 11.58 0 0 1-8 4.62c-3.31.36-6.2-.7-8.75-2.76-2.28-2.46-3.78-5.32-3.6-8.77.17-2.92 1.65-5.6 3.89-7.45l.43-.35.46-.32q.23-.16.47-.3.23-.15.48-.28l.5-.25.5-.23.53-.2q.26-.1.53-.17l.54-.15.54-.12.55-.09.56-.06.55-.04h.56l.56.02.56.05c3 .34 5.98 1.78 7.82 4.22 1.92 2.54 2.26 5.36 2.12 8.44 4.67 2.17 9.42 4.86 14.22 6.68 7.04 3.56 16.21 8.28 23.53 10.9l-5.75-13.09c-3.01-7.2-6.36-14.31-9.5-21.47l-.65.17q-.4.1-.82.17-.4.08-.82.13-.41.06-.83.09l-.83.05h-.83q-.42 0-.84-.03-.41-.02-.83-.07l-.82-.12q-.41-.06-.82-.15l-.81-.2q-.4-.1-.8-.23-.4-.12-.79-.27-.39-.14-.77-.3l-.76-.35-.74-.39-.72-.42-.68-.44-.65-.47-.63-.51q-.31-.26-.6-.54-.3-.28-.58-.57-.28-.29-.55-.6-.26-.3-.51-.62l-.49-.65-.45-.67-.41-.7-.39-.7-.34-.74q-.17-.37-.31-.74l-.27-.77q-.13-.38-.23-.77l-.2-.79-.15-.82q-.07-.4-.12-.82l-.08-.83q-.03-.42-.03-.84v-.83q.01-.42.05-.84l.08-.83.13-.82.17-.82.2-.8.25-.8q.14-.4.3-.79.14-.39.32-.77.17-.38.36-.75.19-.37.4-.73.2-.37.43-.72l.47-.69q.24-.34.5-.66.26-.33.54-.64.28-.32.57-.62.29-.3.6-.58.3-.28.62-.55t.65-.52l.68-.5.7-.45.73-.41.74-.39.76-.34.78-.3q.4-.15.8-.27.39-.13.8-.23l.8-.18.84-.14.84-.1q.42-.04.85-.06l.84-.01q.42 0 .85.03l.84.06.84.11.83.15.82.19q.41.1.82.23.4.12.8.27.4.14.78.3.4.17.77.35.39.18.76.38t.73.42q.36.22.71.46c4.15 2.8 6.31 6.81 7.22 11.64.17 2.3.09 4.52-.6 6.74-1.43 4.64-4.8 8.06-9 10.3L167.7 97.6c2.1-4.72 3.92-9.6 5.95-14.35 4.75-11.17 9.56-22.3 13.73-33.72l-1.13-.46c-3.38-1.5-5.02-3.63-6.3-7Zm18.14-3.3c-.32-2.25-1.05-4-2.96-5.38a8.1 8.1 0 0 0-6.24-1.3 7.33 7.33 0 0 0-4.78 3.24 7.74 7.74 0 0 0-.83 5.97c.13.5.28.99.48 1.47.22.4.45.75.73 1.1a7.13 7.13 0 0 0 5.06 2.76 8.2 8.2 0 0 0 6.16-1.98c1.87-1.67 2.3-3.48 2.38-5.87Zm42.67-12.57c-2.96 1.07-5.29 2.5-6.63 5.5l-.2.46-.16.47-.14.48-.12.49q-.06.24-.1.5l-.07.49-.04.5-.02.5v.5l.04.5.05.5.09.5.1.48.14.48.15.48.18.47.2.42.2.41.23.4.25.39.27.37q.14.19.29.36l.3.35.33.33.34.31.35.3.37.27.39.26q.19.13.4.24l.4.22.42.2.42.17c1.78.68 3.58.78 5.44.49 2.7-.68 4.97-1.82 6.48-4.27a9.93 9.93 0 0 0 1.16-7.42q-.11-.45-.27-.9-.15-.44-.35-.86-.2-.42-.44-.83-.24-.4-.52-.77-.28-.38-.6-.73-.3-.34-.65-.65-.35-.32-.73-.6-.38-.27-.78-.5c-2.33-1.41-4.56-1.51-7.17-1.26ZM143.43 36.3c-3.45.7-6.56 2.32-8.54 5.34a12.58 12.58 0 0 0-1.56 9.8l.15.56q.08.28.18.55l.2.54.24.52.26.52.28.5.3.49.34.47q.17.23.36.45l.37.43.4.42.42.4q.21.19.44.37l.45.35.48.33.49.3a13.22 13.22 0 0 0 8.36 1.63c3.47-.8 6.49-2.48 8.46-5.54a12.38 12.38 0 0 0 1.54-9.4 11.23 11.23 0 0 0-5.12-7.16 13.75 13.75 0 0 0-8.5-1.87Zm-28.07 35.47c-2.42.52-4.47 1.47-5.82 3.64q-.2.32-.37.65l-.3.68q-.13.35-.22.72-.1.36-.16.72-.05.37-.08.75-.02.37 0 .74.01.37.07.74.05.37.14.74c.49 1.99 1.72 3.7 3.5 4.73 1.58.9 3.14 1.04 4.92.9 2.48-.83 4.58-1.89 5.84-4.32q.17-.33.3-.67.13-.35.23-.7t.16-.72q.06-.36.09-.72.02-.37.01-.74-.01-.36-.06-.73-.05-.36-.13-.72-.09-.36-.2-.7a7.07 7.07 0 0 0-3.95-4.28 9.3 9.3 0 0 0-3.97-.7Zm-28.8 38.05c-2.85.38-5.28 1.2-7.1 3.6q-.28.38-.51.78-.24.4-.44.82-.2.42-.36.86-.15.44-.26.9-.11.44-.18.9-.06.47-.08.93-.02.47 0 .93.03.47.1.93.08.45.2.9.12.45.29.88.17.44.37.85.21.42.46.8.25.4.54.76.29.37.61.7.33.34.68.63.36.3.74.57c2.19 1.5 4.5 1.88 7.08 1.82 2.83-.61 5.23-1.55 6.91-4.06a9.1 9.1 0 0 0 1.25-7.03q-.1-.46-.25-.9-.15-.45-.34-.88-.18-.42-.42-.83-.23-.4-.5-.8-.27-.37-.57-.73-.31-.35-.65-.68-.34-.32-.71-.6-.37-.3-.77-.54a10.71 10.71 0 0 0-6.08-1.51Zm196.33 14.97c-2.35.48-4.3 1.28-5.7 3.34q-.2.3-.38.63t-.32.68q-.14.34-.24.7-.11.36-.18.73-.07.36-.1.74-.03.37-.02.74.01.37.06.74.04.37.13.74.08.36.2.72.11.36.27.7.15.34.34.67.18.32.4.62.22.3.47.59.25.28.52.53.28.26.58.48.3.22.62.41a8.64 8.64 0 0 0 4.8 1.1c2.38-.5 4.33-1.55 5.65-3.67q.2-.32.37-.66.17-.34.3-.7.13-.35.23-.7.1-.37.16-.75.06-.37.08-.74.02-.38 0-.76 0-.37-.06-.75-.05-.37-.14-.74a7.01 7.01 0 0 0-3.32-4.44 8.29 8.29 0 0 0-4.72-.95ZM102.8 160.5c-3.54.82-6.54 2.5-8.5 5.67a12.92 12.92 0 0 0-1.47 9.97c.85 3 2.98 5.52 5.7 7.02a13.4 13.4 0 0 0 8.55 1.42c3.58-1.09 6.52-2.74 8.37-6.17a12.92 12.92 0 0 0 1.06-9.75 11.6 11.6 0 0 0-6.15-7.02c-2.49-1.19-4.87-1.32-7.56-1.14Zm169.21 31.26c-1.01.47-1.77.9-2.2 1.97q-.07.15-.11.31-.05.16-.08.33-.03.16-.04.33v.33l.04.33q.02.16.07.32l.1.32.14.3a3.32 3.32 0 0 0 2.04 1.7c.43.12.87.2 1.31.26 1.07-.62 1.94-1.24 2.28-2.49.21-.79.11-1.62-.32-2.32a3.52 3.52 0 0 0-2.59-1.6l-.64-.1Zm5.72 7.5c-1.96 1.64-3.63 1.91-6.14 2.03-1.88 4.7-3.76 9.35-6.07 13.86l.19.25a5.94 5.94 0 0 1 1.44 3.79c.04.73-.1 1.77.44 2.25 2.35 2.08 11.51 6.42 14.98 8.6l2.29 1.5c2.88-6.67 5.73-13.35 8.94-19.87-1.74-1.62-2.17-2.5-2.27-4.83-4.57-2.51-9.13-5.29-13.8-7.58Zm19.05 4.64c-1.02.82-1.7 1.53-1.82 2.89-.07.72.11 1.37.58 1.93a2.6 2.6 0 0 0 2.06.9c.35.02.73-.04 1.08-.07.87-.63 1.6-1.13 1.8-2.27a2.6 2.6 0 0 0-.55-2.14 3.3 3.3 0 0 0-2.47-1.23c-.22-.02-.45-.01-.68-.01ZM114.06 205c-2.42.6-4.44 1.72-5.74 3.93q-.21.37-.38.75-.18.4-.3.8-.14.4-.23.81-.09.41-.13.83-.05.43-.05.85t.03.84q.05.42.13.84.08.41.21.82.11.37.27.72.15.35.33.69.2.34.41.65.22.32.47.61.25.3.53.56.28.26.58.5.3.23.64.44.32.2.67.37c1.7.85 3.34.87 5.19.78 2.45-.79 4.37-1.93 5.63-4.29q.2-.36.35-.74.15-.38.27-.77.11-.4.19-.8.07-.4.1-.82.04-.4.03-.82-.01-.4-.06-.81-.06-.41-.15-.81-.1-.4-.22-.79-.13-.36-.28-.7-.16-.34-.35-.67-.19-.32-.41-.63-.22-.3-.48-.58-.25-.28-.53-.54-.28-.25-.58-.48-.3-.22-.63-.41-.32-.2-.66-.35a9.65 9.65 0 0 0-4.85-.78Zm146 11.08c-.96.57-1.71 1.09-2.05 2.2-.23.78-.18 1.62.21 2.34.39.7 1.1 1.23 1.86 1.43.54.15 1.28.07 1.82 0 .97-.66 1.67-1.17 1.9-2.37.15-.8-.02-1.58-.51-2.23a3.59 3.59 0 0 0-2.58-1.35c-.22-.02-.43-.02-.65-.02Zm-87.95 17.87c-.99.9-1.65 1.74-1.66 3.13 0 .75.23 1.44.78 1.97.48.47 1.2.75 1.88.7.55-.06 1.1-.2 1.64-.32.79-.67 1.63-1.4 1.68-2.52a2.37 2.37 0 0 0-.71-1.9c-.9-.91-2-1.1-3.24-1.08l-.37.02Zm6.7 6.46c-2.05 2.1-3.28 2.58-6.2 2.82q-2.8 7-5.27 14.13c1.1 1.75 1.3 3.1 1.24 5.15 5.61 2.34 11.1 5 16.57 7.66l2.33 1.08c2.6-5.76 4.98-11.77 7.88-17.37-1.25-.63-2.45-1.43-2.94-2.82-.87-2.44.68-3.52-2.18-5.1-3.64-1.99-8.2-2.88-11.42-5.55Zm18.1 5.44c-.9.72-1.53 1.25-1.64 2.47-.07.8.18 1.51.72 2.1.7.77 1.6 1 2.62.98l.4-.02c.86-.6 1.6-1.15 1.84-2.23.19-.8-.04-1.56-.56-2.17a3.34 3.34 0 0 0-2.51-1.14l-.87.01Zm71.5 9.85c-1.76.8-3.1 1.68-3.77 3.6q-.09.24-.15.5-.07.25-.1.52-.04.26-.05.52l.01.53.06.52q.05.26.12.51.07.26.16.5.1.25.22.48a5.24 5.24 0 0 0 3.06 2.51 7.6 7.6 0 0 0 2.98.14c1.63-.67 2.93-1.4 3.68-3.07q.1-.22.18-.46l.14-.48q.05-.24.08-.49l.04-.5-.02-.5-.06-.49q-.04-.24-.11-.48t-.16-.47q-.1-.26-.23-.51-.13-.26-.29-.5l-.33-.45q-.18-.22-.38-.41-.2-.2-.42-.38-.22-.18-.46-.33-.24-.16-.49-.29-.25-.13-.51-.23a7.35 7.35 0 0 0-3.2-.29Zm-107.21 2.83c-.87.55-1.63 1.17-1.84 2.23-.17.85-.05 1.59.45 2.29a3.08 3.08 0 0 0 2.05 1.24c.49.06 1 .03 1.48.02.88-.6 1.55-1.12 1.83-2.2.21-.83.04-1.61-.46-2.29a3.19 3.19 0 0 0-2.05-1.25c-.48-.06-.98-.05-1.46-.04Zm56.69 17.12c-1.84.84-3.35 1.93-4.07 3.9q-.1.29-.17.58-.08.29-.12.58l-.06.6v.59l.07.59q.05.3.13.58.07.29.18.56.1.28.24.55a5.9 5.9 0 0 0 3.44 2.88c1.08.34 2.32.22 3.44.16 1.79-.78 3.2-1.71 3.96-3.59l.19-.55q.08-.27.13-.56.06-.28.08-.57.03-.29.02-.58 0-.29-.04-.58-.03-.28-.09-.57-.06-.28-.15-.56l-.2-.54q-.12-.27-.27-.53-.14-.26-.31-.5-.17-.25-.37-.47-.19-.23-.4-.44l-.45-.39q-.24-.18-.49-.34-.25-.16-.51-.3-.27-.13-.55-.24a7.16 7.16 0 0 0-3.63-.26Z"/>
  <path fill="#1F2A51" d="M244.64 44.99c-1.86.3-3.66.2-5.44-.49l-.42-.18q-.22-.09-.42-.2l-.4-.21q-.21-.11-.4-.24-.2-.12-.39-.26l-.37-.27-.35-.3-.34-.31q-.17-.16-.32-.33l-.31-.35q-.15-.17-.29-.36l-.27-.37-.25-.39-.23-.4-.2-.41-.2-.42q-.1-.23-.18-.47l-.15-.48-.14-.48q-.06-.24-.1-.49l-.09-.5-.05-.5q-.03-.24-.04-.5v-.5l.02-.5.04-.5.07-.49q.04-.25.1-.49.05-.25.12-.49l.14-.48.17-.47.2-.46c1.33-3 3.66-4.43 6.62-5.5 2.61-.25 4.84-.15 7.17 1.25q.4.24.78.52.38.27.73.59.34.3.66.65.31.35.6.73.27.37.5.77.25.4.45.83.2.42.35.86.16.45.27.9c.59 2.48.19 5.24-1.16 7.42-1.51 2.45-3.78 3.6-6.48 4.27Zm-2.15-11.64c-.9.67-1.64 1.2-1.83 2.4-.1.67.05 1.28.5 1.8.78.9 1.8.95 2.9.97.88-.63 1.53-1.11 1.68-2.27a2.3 2.3 0 0 0-.6-1.86c-.72-.82-1.61-.96-2.65-1.04ZM199.37 33.1c1.36-1.4 5.55-1.57 7.42-1.6 6.34-.12 11.79 2.56 17.8 4.08 1.87-.77 3.92-1.98 5.86-2.44-.66 2.44-.29 4.45.37 6.82-5.54 2.62-11.36 4.97-16.76 7.86-1.76 3.32-3.13 7.02-4.63 10.48l-8.8 20.57-7.77 18.06c-1.46 3.4-3.1 6.8-4.34 10.28-.6 1.65-1.69 4.46-1.26 6.2 1.56 6.28 4.58 12.3 7.05 18.25l14.81 35.64q16.81 42.56 34.6 84.72c4.44 10.43 8.7 21.05 13.62 31.27q-5.52 2.18-10.97 4.53l-47.77-115.3c-9.6-23.57-18.57-47.61-29.3-70.7 4.71-12.03 10-23.8 14.9-35.75 2.18-5.3 4.53-10.64 6.25-16.11 1.79-.23 3.4-.46 5.03-1.29q.24-.11.47-.24l.44-.27.44-.3.42-.3.4-.34q.2-.17.39-.36l.37-.37.34-.39.33-.4q.16-.21.3-.43l.3-.44.26-.45.24-.47.22-.47.19-.49.17-.5c1.06-3.4.25-6.33-1.39-9.35Z"/>
  <path fill="#284163" d="M198.1 38.78c-4.74 2.8-8.82 4.03-14.33 4-.2-.49-.35-.98-.48-1.48a7.74 7.74 0 0 1 .83-5.97 7.33 7.33 0 0 1 4.78-3.24 8.1 8.1 0 0 1 6.24 1.3c1.9 1.38 2.64 3.13 2.96 5.39Z"/>
  <path fill="#1F2A51" d="M255.6 33.84c.5-.68.8-.67 1.62-.8 9.93-1.47 22.97 2.23 30.92 8.33 11.32 8.7 15.7 20.03 17.88 33.69 4.86-2.6 9.8-4.97 15.06-6.64 13.07-4.15 28.22-4.1 41.3-.09 16.83 5.17 31.86 17.03 40.08 32.67 7.96 15.16 10.35 32.91 5.1 49.35-1.55 4.86-3.67 9.18-6.12 13.64 15.55 7.75 27.87 19.47 33.47 36.28 5.66 16.98 5.49 35.94-2.63 52.14-2.55 5.08-5.84 9.59-9.07 14.23-5.48-4.1-12.33-8.6-18.87-10.66-8.1 2.46-16.17 5.52-24.1 8.5-3.66 1.37-7.48 3.21-11.28 4.14-.84.21-1.57.38-2.36-.05-1.1-.6-1.49-1.86-1.78-3q-.26-1.02-.5-2.06c-9.06 2.94-17.92 7.15-26.68 10.9l-41 17.4q-78.5 32.9-156.58 66.75c20.33.5 40.72.13 61.06.1h213.62l35.47.01c6.05 0 12.13.15 18.18 0h24.86l-.02 141.8-472.02.07.05-96.46-.02-28.78c0-5.53-.16-11.14.1-16.67 22.36.42 44.79.03 67.16.1l-.02-6.2c-6.3-.17-12.97-2-18.73-4.45-7.5-3.2-15.34-8.86-18.4-16.72q-.14-.36-.26-.73l-.24-.74-.19-.76-.16-.76-.11-.77-.08-.77-.04-.78v-.78l.05-.78.08-.77q.05-.39.12-.77l.16-.76.2-.75q.1-.38.24-.75l.27-.72.31-.72c2.31-5.04 6.74-7.73 11.77-9.58-3.74-2.33-7.58-4.4-11.13-7.05a71.7 71.7 0 0 1-22.8-29.77c-6.56-16.54-6.85-35.23.37-51.61 7.08-16.11 19.92-28.2 35.62-35.75 3.1-1.49 6.36-2.66 9.55-3.9a72.7 72.7 0 0 1-5.6-20.84c-1.3-11.24-.15-21.5 2.81-32.37.55-2.02 1.03-4.8 2.33-6.44.76 2.3 1.88 4.25 3.63 5.95a13.44 13.44 0 0 0 9.59 3.84 13 13 0 0 0 9.26-4.33c2.95-3.38 3.02-7.03 2.73-11.24 6.9-3.52 13.88-7.1 20.97-10.22 7.34 4.22 15.4 7.53 23 11.29q11.24 5.68 22.63 11.03c4.36 2.07 8.69 4.28 13.2 6 3.66 7.87 6.63 16.27 9.88 24.34l15.01 36.62-66.63-34.79c-5.3 2.9-11.02 5.38-16.57 7.8a21.15 21.15 0 0 0-3.5-6.44l-.56-.62-.58-.59q-.3-.29-.62-.56-.3-.27-.63-.53t-.67-.5l-.68-.47-.71-.43-.73-.4q-.37-.19-.75-.36-.38-.17-.77-.32l-.78-.29q-.39-.13-.79-.24-.4-.12-.8-.21-.4-.1-.82-.17l-.82-.13q-.4-.05-.82-.08c-4.69-.4-9.3 1.42-12.81 4.47a16.91 16.91 0 0 0-5.71 11.8 15.5 15.5 0 0 0 4.08 11.55 16.85 16.85 0 0 0 11.8 5.6l.87.02.87-.02.86-.06.87-.1q.43-.07.85-.16.43-.08.85-.19.42-.1.84-.23.42-.12.83-.27l.8-.31.8-.36q.4-.18.78-.39.38-.2.75-.43l.73-.47q.36-.24.71-.5t.68-.54q.34-.28.66-.57c3.94-3.62 5.14-8.1 5.32-13.28 5.27-2.71 10.84-5 16.18-7.61 5.48 2.49 10.8 5.74 16.12 8.58l28.47 15.05c7.83 4.15 15.59 8.47 23.71 12.03 2.15 4.42 3.73 9.15 5.75 13.65l-27.41-14.04c-13.64-7.16-27.23-14.58-41.02-21.42q-9.28 14.45-18.88 28.7c-.61-.75-1.3-1.5-2.06-2.12q-.2-.18-.43-.35l-.45-.33-.47-.3-.48-.28-.5-.25-.5-.23-.52-.2-.52-.18-.54-.15-.54-.12q-.27-.06-.55-.1l-.55-.07-.55-.04-.56-.01-.56.01-.55.05-.56.07-.56.1-.56.12-.54.16q-.28.08-.54.18l-.53.21-.52.24-.5.26-.5.28-.47.31-.46.34q-.23.17-.44.35l-.43.38-.4.4q-.2.2-.39.42l-.36.44q-.18.22-.34.46l-.33.47-.3.5-.27.5-.24.52q-.12.26-.22.53l-.2.54-.17.55-.13.56q-.07.28-.11.56l-.09.57-.05.57-.02.57v.58l.03.57.06.57a11.57 11.57 0 0 0 4.36 7.71 11.02 11.02 0 0 0 8.5 1.81l.56-.11q.28-.06.55-.14l.55-.17.53-.2q.27-.1.53-.22l.5-.25.5-.27.5-.3.47-.32.45-.35.43-.37q.22-.19.42-.39l.4-.4.37-.44.35-.45q.18-.23.33-.46c2.09-3.08 2.25-6.16 1.5-9.67 2.56-2.74 4.43-6.28 6.48-9.4l12.08-18.43c8.53 3.66 16.8 8.55 24.96 12.97-4.06 10.7-8.7 21.26-13.16 31.8-3.47 1.46-20.8 6.23-22.16 8.31.02.25.03.5.14.74.2.43.55.82.98 1.01.82.37 21.19-6.74 23.47-7.76 1.52-2.95 2.54-6.34 3.83-9.41l9.75-23.24 41 20.93c3.99 8.84 7.5 17.97 11.18 26.94q9.26 22.8 19.3 45.27c-5.5 1.78-10.85 4.4-16.12 6.78l-2.81-7.2c2.08-1.84 3.66-4.27 3.78-7.1a9.02 9.02 0 0 0-2.43-6.36l-.34-.35-.35-.33-.36-.32-.38-.29-.4-.27q-.2-.14-.41-.26l-.43-.23-.43-.2-.44-.2-.46-.16-.46-.14-.47-.11-.47-.1-.48-.06-.48-.04-.48-.02c-2.46 0-5 .97-6.72 2.75a9.96 9.96 0 0 0-2.52 7.05 7.93 7.93 0 0 0 2.66 5.84c2.79 2.51 5.44 2.52 8.96 2.38a33.08 33.08 0 0 1 2.82 6.96c-7.03 3.1-14.18 5.93-21.23 9-4.84-10.68-9.1-21.72-13.71-32.51 2.99-6.3 5.77-12.67 8.88-18.9.96-.35 2.01-.69 2.87-1.25a6.26 6.26 0 0 0 2.8-4.27l.06-.59v-.6q-.02-.3-.07-.59-.05-.3-.12-.59-.07-.28-.17-.57-.1-.28-.23-.55t-.29-.52q-.15-.26-.33-.5-.18-.24-.39-.47-.2-.23-.44-.44-.22-.2-.47-.39-.25-.18-.52-.33-.26-.16-.54-.29-.28-.13-.58-.23-.29-.1-.59-.17t-.6-.1c-2.18-.29-3.83.6-5.48 1.92-4.36-2.39-9.1-4.8-13.8-6.45a11.49 11.49 0 0 0-1.45-5.56q1.22-2.97 2.3-6c3.15-1.84 8.4-4.25 10.74-6.85.22-.65.3-1.1.06-1.76-.2-.55-.62-1-1.22-1.08-2.01-.3-8.07 4.24-9.91 5.43-1.44-1.32-3.1-2.72-4.99-3.31-.94-.3-1.7-.35-2.59.1-.25.53-.33.65-.2 1.24.49 2.23 3.59 3.64 5.36 4.8-.75 1.99-1.68 3.9-2.4 5.91-.7-.11-1.37-.33-2.07-.36-1.73-.06-3.5.7-4.72 1.92q-.22.23-.42.48-.2.25-.38.53-.17.27-.31.56-.14.29-.26.59-.11.3-.19.61t-.13.63l-.06.64q-.01.32.01.65c.13 2.1 1.1 3.54 2.65 4.88-.62 1.56-4.1 12.83-4.87 13.14-.25.11-.55.02-.82.02-1.98.07-4.01.2-5.63 1.5a6.21 6.21 0 0 0-2.15 4.56c-.1 1.58.4 3.15 1.49 4.32a6.63 6.63 0 0 0 4.78 2.02c2.28 0 3.5-.96 5-2.55q9.62 4.52 19.13 9.24c2.28 4.54 4.09 9.47 6.06 14.16 2.68 6.37 5.56 12.77 7.88 19.28q-7.51 3.27-15.1 6.39c-3.21 1.3-6.72 2.44-9.8 4.05a7.07 7.07 0 0 0-2.4 1.9 4.33 4.33 0 0 0-.83 3.38 3.56 3.56 0 0 0 1.68 2.49 4.2 4.2 0 0 0 3.51.4c3.15-.85 6.19-2.47 9.16-3.78l13.16-5.78c9.83-4.41 19.8-8.54 29.7-12.8l78.92-33.87c6.1-2.68 12.47-4.94 18.5-7.74 1.3-.6 2.81-1.49 3.48-2.81.48-.97.44-2.36.06-3.35a3.51 3.51 0 0 0-2.03-2.03c-.78-.3-1.7-.35-2.51-.14-2.48.67-5.07 2.24-7.43 3.28l-17.86 7.74c-4.49-10.53-8.23-21.37-12.87-31.83 2.53-6.9 6.2-13.35 8.76-20.23 2.02.07 4.05-.4 5.57-1.83a5.73 5.73 0 0 0 1.74-4.27 6.63 6.63 0 0 0-2.2-4.79 5.91 5.91 0 0 0-4.37-1.61c-2.18.16-3.5 1.5-4.84 3.03q-6.76-3.54-13.58-6.95v-.53c0-.38.03-.76.02-1.14a7.55 7.55 0 0 0-2.32-5 5.64 5.64 0 0 0-4.25-1.39l-.66.08q-.32.06-.64.15t-.63.21q-.3.12-.6.27-.29.16-.56.34-.28.18-.54.39-.25.2-.49.44-.23.23-.44.49a6.45 6.45 0 0 0-1.46 4.8c.25 2.04 1.29 3.23 2.81 4.47-2.24 4.15-3.92 8.68-5.83 13-1.28-.22-2.62-.46-3.9-.14a6.67 6.67 0 0 0-4.17 3.09q-.15.26-.27.53-.13.27-.22.55-.1.28-.16.57-.07.29-.1.58-.04.3-.05.6l.02.58q.02.3.07.6.05.28.13.57c.57 1.94 1.73 2.99 3.42 3.97a86.37 86.37 0 0 1-5.5 12.59c-1.56-.84-4.22-2.61-6.02-2.31-.97.16-1.34.64-1.86 1.4-.04.42-.15.67.07 1.07 1.13 2.06 6.97 3.32 9.11 4.12 3.2-4.64 5.64-10.94 7.44-16.29a9.7 9.7 0 0 0 4.53-1.34c6.47 3.68 12.74 7.7 19.45 10.96 1.9 4.44 3.56 9.03 5.34 13.53 2.36 5.95 4.85 11.86 6.85 17.95-6.41 3.04-13.2 5.55-19.75 8.31a97.26 97.26 0 0 1-2.73-6.98c.47-.42.93-.85 1.35-1.33a8.58 8.58 0 0 0 2.15-6.3 8.42 8.42 0 0 0-3.21-5.68 8.94 8.94 0 0 0-6.94-1.8 8.42 8.42 0 0 0-5.7 3.3 9.45 9.45 0 0 0-1.41 7.11 8.38 8.38 0 0 0 3.8 5.31c2.15 1.4 4.28 1.25 6.7.75 1.02 2.28 1.92 4.58 2.8 6.91q-7.2 3.16-14.31 6.47c-2.76-7.38-6.4-14.47-9.44-21.74l-20.5-49.82c-3.57-8.8-7.36-17.5-10.63-26.4 3.98-8.95 7.64-18.05 11.33-27.12 5.45 2.08 11.05 3.8 16.56 5.7 4.7 1.61 9.35 3.43 14.1 4.92 3.04-1.88 6.64-3.09 9.93-4.44q7.4-3 14.75-6.14l-.07-3.2c-8.17 2.71-16.57 7.38-24.9 10.34-9.82-3.12-19.42-7-29.32-9.84 3.67-9.8 7.9-19.43 11.91-29.1 9.76 3.17 19.43 6.65 29.2 9.71.41.95.86 1.9 1.4 2.77a11.18 11.18 0 0 0 6.83 4.65c2.67.6 5.35.22 7.66-1.26 2.64-1.7 4.7-4.19 5.3-7.33l.09-.5.05-.51q.03-.25.04-.51v-1.02l-.05-.51-.06-.5q-.04-.26-.1-.51l-.1-.5-.14-.49-.17-.48-.18-.48-.21-.47-.23-.45-.26-.44-.27-.44-.33-.44q-.16-.22-.34-.43l-.37-.41-.39-.4-.4-.37-.43-.35-.44-.33-.46-.3-.48-.29-.49-.26-.5-.23-.51-.2-.52-.18q-.26-.09-.53-.16l-.54-.12-.54-.1c-2.92-.47-6.19.16-8.56 1.97-2.7 2.06-3.77 5.08-4.17 8.32-10.24-3.29-20.3-7.3-30.67-10.18-7.66 19.8-16.58 39.17-23.94 59.08q-2.7-6.27-5.1-12.66c5.86-13.36 11.12-27.04 16.45-40.63 2.8-7.1 6.14-14.26 8.36-21.56 4.54-1.75 8.94-4.56 13.21-6.89l-1.43-2.52c-3.13 1.34-10.68 6.25-13.3 6.53l-.32.03c-1.34 2.07-2.18 4.98-3.07 7.29l-5.31 13.7c-5.29 13.48-11 26.8-16.1 40.35-.13-.22-.25-.45-.36-.69-1.18-2.57-2.14-5.3-3.24-7.92q-4.3-10.18-8.47-20.41c-1.93-4.7-8.6-18.88-8.92-22.82-.12-1.5.62-3.44 1.13-4.84 2.2-6.01 5.07-11.9 7.61-17.79 5.71-13.23 11.68-26.67 17-40.03q8.01-3.56 15.92-7.35.55.66 1.13 1.28c2.53 2.65 5.77 4.39 9.51 4.42 3.5.03 7.06-1.4 9.5-3.93 2.9-3.01 3.41-6.65 3.38-10.62Zm128.74 133.21c2.92-2.97 7.75-11.33 9.95-15.11 2.62-4.5 4.93-10.12 3.39-15.39-.69-2.35-2.13-4.56-4.37-5.67a7.74 7.74 0 0 0-5.9-.36c-4.31 1.53-7.05 6.2-8.93 10.08.24.64.26.88.97 1.12.7.24 1.74.18 2.46.08 2.45-2.73 2.43-7.5 7.13-7.75a3.96 3.96 0 0 1 3.15 1.15c1.43 1.32 1.98 3.44 2.02 5.33.22 9.66-12.03 18.92-13.35 27.28-.2.6-.43 1.24-.51 1.88a3 3 0 0 0 .69 2.32 2.5 2.5 0 0 0 1.85.78c.84 0 1.7-.35 2.27-.96.57-.6.82-1.34.75-2.18-.1-1.27-.66-1.78-1.57-2.6Zm-6.96-26.59c-1.27-3.22-2.18-6.66-3.13-9.99-5 1.79-10.13 3.2-15.18 4.85-7.34 2.38-14.62 4.96-21.97 7.31-4.77 1.53-9.64 2.85-14.34 4.6 3.93 15.82 8.25 28.27 23.04 37.1 2.47 1.46 5.08 2.64 7.62 3.97 2.95 1.53 5.8 3.32 8.99 4.33.71 1.6 1.49 4.73 3.15 5.37 1.96.03 4.6-1.59 6.57-2.24-.31-1.56-.66-3.02-.44-4.61l.07-.5c.78-5.46 3.7-11.69 5.65-16.92.64-1.72 1.14-3.64 1.89-5.3 2.78-10.95 1.2-17.45-1.92-27.97ZM265.21 67.9c-4.66.6-8.76 2.48-11.7 6.24a17.68 17.68 0 0 0-3.48 13.08l.14.76q.07.38.17.76l.21.75.25.73q.13.36.29.72.15.36.32.7.16.36.35.7.18.34.39.67.2.33.42.65.21.32.45.63.23.31.48.61l.51.59q.26.28.54.55.28.28.57.53.29.26.59.5.3.25.61.48a17.9 17.9 0 0 0 11.77 3.2c4.72-.65 8.82-2.45 11.76-6.34l.48-.66q.23-.34.44-.69l.42-.7q.2-.37.37-.74l.35-.74q.16-.38.3-.77l.27-.77.23-.79.19-.8.15-.8.1-.82q.05-.4.08-.82l.03-.82-.01-.82-.05-.82-.1-.81q-.05-.4-.13-.81l-.18-.8-.21-.8q-.12-.4-.26-.78-.14-.39-.3-.77-.15-.38-.33-.75-.17-.37-.37-.73l-.4-.72-.45-.7-.47-.66-.51-.65q-.26-.32-.54-.62l-.57-.6-.6-.56q-.3-.27-.63-.53-.32-.26-.65-.5a16.8 16.8 0 0 0-11.3-3.16Zm-37.53 1.24c-2.68.68-4.95 1.8-6.4 4.3l-.22.4-.2.4q-.1.22-.17.43l-.16.43-.13.44-.1.44-.09.45-.06.45-.04.46-.02.46.01.45q0 .23.03.46l.05.45.08.45.1.45.12.44q.12.4.28.78.16.39.36.75.2.37.43.71.23.35.5.67.26.32.56.6.3.3.62.56.32.26.67.49.35.22.72.41c1.9.98 3.67 1.02 5.75.96 2.57-.7 4.68-1.77 6.08-4.16a8.9 8.9 0 0 0 .74-7.04q-.12-.41-.28-.81-.17-.4-.37-.77-.2-.38-.43-.74-.24-.35-.51-.68-.28-.33-.58-.63-.3-.3-.63-.57-.34-.27-.7-.5-.35-.24-.73-.44a9.55 9.55 0 0 0-5.28-.95Zm-12.45 29.53c-2.52.61-4.62 1.62-6.07 3.89q-.24.38-.44.78t-.36.82q-.16.42-.28.85-.11.43-.19.87-.07.44-.1.9-.03.44 0 .89 0 .44.07.89.06.44.16.88.1.41.25.82.15.4.33.79.19.39.41.76.22.36.48.7.26.35.55.66.3.32.62.6.32.29.67.54.35.25.72.46c1.97 1.14 3.88 1.27 6.08 1.19 2.55-.71 4.7-1.66 6.07-4.09a9.16 9.16 0 0 0 .6-7.2 8.55 8.55 0 0 0-4.25-5.06 10.07 10.07 0 0 0-5.32-.94Zm158.46 23.25a932.33 932.33 0 0 1-36.05 12.21c-6.35 2.04-13.13 3.73-19.27 6.3-1.2.51-2.14 1.03-2.84 2.15-.08.68-.12.88.28 1.5.37.56 1.06.97 1.73 1 .33.03.76-.06 1.09-.11 12.65-3.88 25.16-8.24 37.73-12.39 6.16-2.04 12.58-3.73 18.67-5.96a3.3 3.3 0 0 0 1.73-1.46c.3-.6.4-1.22.15-1.86a2.44 2.44 0 0 0-1.42-1.34c-.58-.22-1.2-.13-1.8-.04Zm-242.57 7.53c-2.71.84-4.9 2.14-6.25 4.75a8.28 8.28 0 0 0-.53 6.58q.16.43.35.84.2.41.43.8.24.39.51.75.27.37.58.7.3.34.65.64.34.3.7.57.38.27.77.5.4.23.8.42c1.74.79 3.39.85 5.25.69 2.6-.64 4.8-1.78 6.2-4.16a9.1 9.1 0 0 0 .86-7.07q-.12-.41-.28-.8-.16-.4-.36-.78-.2-.38-.44-.74-.24-.35-.5-.68-.28-.34-.58-.64-.3-.3-.64-.57-.33-.27-.7-.5-.35-.23-.73-.43c-2.03-1.05-3.9-1-6.1-.87Zm37.17 15.51c-2.43.86-4.46 2.21-5.65 4.57l-.2.4-.17.42-.15.43-.13.43-.1.44-.09.44-.06.45-.04.45v.9l.03.45.06.45.08.44.1.44q.05.22.12.43l.15.43.16.43.2.42.2.41.24.4.25.39.27.37.29.36.3.34.33.33.34.3.36.3.37.27.39.25.4.24.4.21.43.2c1.97.82 3.93.84 6.02.56 2.46-.9 4.44-2.09 5.64-4.54q.2-.4.34-.8.15-.4.26-.8.1-.42.17-.85.07-.42.1-.85.02-.43 0-.85-.02-.43-.07-.86-.06-.42-.16-.84-.1-.41-.24-.82l-.17-.44q-.09-.22-.2-.43l-.2-.42-.23-.41-.26-.4-.27-.38q-.14-.2-.3-.37-.14-.19-.3-.36l-.33-.34-.34-.32-.36-.3-.38-.3-.38-.26-.4-.25q-.2-.12-.42-.22l-.42-.21c-1.96-.9-3.88-.98-5.98-.73Zm147.3 9.56c-2.23.77-3.9 1.92-4.96 4.1a10.54 10.54 0 0 0-.42 8.57c3.28 8.29 18.06 13.61 25.8 17.07 1.54.69.14 3.4 2.3 4.17a3 3 0 0 0 2.4-.1c.75-.4 1.13-1.2 1.3-2a3.06 3.06 0 0 0-.55-2.44 8.12 8.12 0 0 0-2.18-1.95c-6.73-3.72-23.25-9.15-25.57-16.87a6.01 6.01 0 0 1 .48-4.74 3.73 3.73 0 0 1 2.46-1.93 4.8 4.8 0 0 1 3.86.74c1.3.8 2.96 2.58 4.62 2.14.63-.16.98-.44 1.3-.98-.05-1.08-.67-1.73-1.46-2.42a12.82 12.82 0 0 0-9.37-3.36Zm73.18 10.53c-.97.67-1.65 1.13-1.93 2.34-.17.73-.08 1.44.32 2.07.55.84 1.34 1.2 2.3 1.37.28.05.33.05.59.07.87-.6 1.68-1.2 1.89-2.31.14-.81.05-1.56-.45-2.24a3.4 3.4 0 0 0-2.48-1.28l-.24-.02ZM243.41 181.2c-2.53.8-4.57 1.96-5.88 4.4a9.33 9.33 0 0 0-.61 7.1q.13.4.3.8.17.4.38.78t.46.74q.25.36.53.69.28.33.6.63.3.3.65.56.34.27.7.5.37.24.76.43c2.1 1.05 4.13 1.02 6.38.76 2.62-1 4.72-2.3 5.9-5q.19-.42.32-.85.14-.44.23-.89.1-.45.14-.9.05-.46.05-.92 0-.45-.05-.9-.04-.46-.14-.91-.09-.45-.22-.89-.14-.44-.32-.86l-.2-.42-.2-.4-.24-.4-.26-.39q-.13-.19-.28-.37l-.3-.36-.3-.34-.33-.32q-.17-.16-.35-.3l-.36-.3-.38-.26-.39-.25-.4-.23-.42-.2-.42-.19-.43-.16a10.74 10.74 0 0 0-4.92-.38Zm89.37 3.6c-1.02.5-1.72.87-2.06 2.02a2.9 2.9 0 0 0 .3 2.4l.18.25q.09.13.19.24l.22.22.23.19.26.17.27.14.29.11.3.09c.34.08.8.06 1.15.07.97-.65 1.61-1.19 1.89-2.37.16-.7.1-1.43-.27-2.07a2.93 2.93 0 0 0-2.26-1.4c-.38-.06-.36-.05-.7-.06Zm40.14 13c-3.96.86-13.1 3.7-15.37 7.01-.57.83-.8 1.81-.59 2.8a6.4 6.4 0 0 0 2.07 3.29c1.4.08 2.76 0 3.86-.96.95-.83 1-2.2.97-3.38 0-.46-.22-1.57.12-1.89 2.25-2.07 8.93-2.78 9.84-5.69-.21-.62-.22-.8-.8-1.16-.03-.02-.07-.02-.1-.03Zm3.96 1.54c-.78.42-1.15.75-1.4 1.63-.23.78-.4 1.57-.61 2.35-2.06 1.25-5.34 2.44-6.04 4.94-.2.7-.1 1.63-.08 2.35 1.9.2 4.28.54 6.09-.26.68-.3 2.73-1.92 3.33-1.24 1.17 1.33 1.51 3.7 2.21 5.3.7 1.6 1.9 3 2.48 4.64.56 1.59.27 3.94 1.16 5.33.48.74 1.38 1 2.2 1.09q.47.04.95.06a29.37 29.37 0 0 0 10.43-5.6c-1.64-4.05-8.72-17.08-12.4-18.67a28.49 28.49 0 0 0-8.32-1.92Zm-16.32 12.15c-.62.34-1.25.85-1.45 1.57-.16.61-.06 1.2.31 1.72.72.99 2.26 1.8 3.47 1.88 1.08.07 2.07 0 3.08-.35.78-.65 1.66-1.26 1.7-2.36.02-.45-.18-.75-.46-1.09-1.27-1.55-4.83-1.46-6.65-1.37Zm14.11 0c-.73.15-1.2.08-1.68.68-.6 4.24 1.5 9.55 2.6 13.64-1.2.29-2.4.55-3.61.76.15 1.2.13 3.04 1.17 3.82.44.33 1.16.26 1.69.23a28.5 28.5 0 0 1 5.64-2.09c-.5-3.49-2.1-14.63-4.49-16.74-.46-.15-.83-.27-1.32-.3Zm-10.34 6.86c-.6.54-1.48 1.2-1.61 2.05-.1.61.04 1.15.47 1.6.79.84 2.43 1.06 3.51.93.32-.04.63-.12.95-.2 1.04-.71 1.86-1.24 2.15-2.55-.29-.77-.56-1.06-1.32-1.38-1.2-.5-2.86-.4-4.15-.45Zm29.1 9.98c-3.87.58-7.41 2.69-11.07 4.03-3.88 1.43-7.93 2.56-11.71 4.25-1.39.63-3.82 1.65-4.76 2.85-3.07 3.94.72 17.35 2.01 22.07.26.92.5 1.9 1.25 2.54 2.31.02 5.2-1.72 7.36-2.55 3.72-1.29 29.59-9.75 30.52-11.07.18-3.15-5.1-16.45-7.26-18.9a9.33 9.33 0 0 0-6.04-3.21h-.3ZM147.48 381.73c-1.13.7-2.05 1.35-2.3 2.72q-.04.15-.05.3l-.01.31.02.3.05.3.09.3.11.28.15.27q.07.13.17.25a3.56 3.56 0 0 0 2.56 1.42c.37.04.73.04 1.1.04 1.1-.58 1.9-1.15 2.3-2.38a3 3 0 0 0-.2-2.4 3.3 3.3 0 0 0-1.98-1.6c-.65-.18-1.34-.14-2.01-.1Zm248.77-.03c-1.14.54-2.18 1.08-2.54 2.4-.2.77-.06 1.55.38 2.21a3.93 3.93 0 0 0 2.76 1.7c.33.05.67.07 1 .08 1.13-.6 1.91-1.08 2.28-2.37.22-.79.13-1.62-.29-2.32a3.28 3.28 0 0 0-2.14-1.56c-.48-.1-.96-.12-1.45-.14Zm-337.52 1.82c0 11.87-.17 23.79.09 35.66l4.43.03.11-10.81c4.07.06 8.5.43 12.52-.13 3.74-.83 6.91-2.13 9.08-5.51l.33-.55.3-.56.27-.58.24-.59.22-.6q.1-.3.18-.61l.15-.62q.07-.31.12-.63.05-.31.08-.63l.06-.64.02-.63v-.64l-.04-.64-.07-.63-.1-.63-.14-.63a11.6 11.6 0 0 0-5.75-7.4c-5.67-3.13-15.67-2.07-22.1-2.03Zm195.3.04-.06 35.69h5.11l.03-10.91c4.26.07 8.64.37 12.85-.3 3.56-.73 6.71-2.11 8.83-5.24a12.6 12.6 0 0 0 1.73-9.38l-.12-.54q-.07-.28-.16-.54l-.18-.54-.2-.52-.23-.5-.26-.5-.28-.5-.3-.46-.33-.46-.35-.44-.38-.42-.39-.4-.4-.38-.44-.36q-.22-.18-.45-.34-.22-.17-.46-.32c-5.99-3.91-16.6-2.68-23.57-2.64Zm-33.26 2.4q-.07 3.43-.05 6.87h-5.12v3.58l5.17-.03c-.03 4.26-.6 13.51.12 17.15.3 1.49.9 2.87 1.96 3.99a6.89 6.89 0 0 0 5.03 2.1c1.94.02 4.03-.22 5.49-1.59.3-.78.28-.81-.02-1.62 0-.04-.03-.07-.04-.1-.2-.38-.5-1.22-.9-1.35-1.99-.62-4.97 1.77-6.46-.65-1.55-2.5-.78-14.32-.82-17.91l8.42-.02.03-3.58q-4.22-.08-8.43-.03l-.01-6.78c-1.46-.02-2.92-.08-4.37-.03Zm154.74.68-.02 5.9-4.13.04.04 3.62h3.86c-.02 4.52-.63 13.16.41 17.26a9.36 9.36 0 0 0 2.26 4.22 6.21 6.21 0 0 0 4.65 1.86c1.33 0 3.99-.43 4.98-1.36.5-.46.52-.75.6-1.38l-.5-.98-.76-.78c-1.81.09-4.27 1.42-5.93.16-1.41-1.07-1.48-3.63-1.54-5.25-.16-4.53.09-9.13.18-13.66h7.27l.01-3.59q-3.64-.09-7.3-.08l.01-6.03-4.09.05Zm-71.81 5.23c-3.9.72-6.1 1.86-8.43 5.18l-.16.24.05-4.97-4.6.01.05 22.92v3.59l4.48.04c.04-4.04-.5-12.6.46-16.2q.14-.55.37-1.09.22-.53.5-1.03.3-.5.66-.95.36-.45.78-.85c1.8-1.68 4.12-2.18 6.47-2.63.02-1.32.22-2.88-.18-4.15l-.45-.11Zm15.69.27c-3.7.64-7.01 2.35-9.2 5.5a14.48 14.48 0 0 0-2.1 10.88c.72 3.7 2.76 6.91 5.97 8.95a13 13 0 0 0 9.66 1.87 12.8 12.8 0 0 0 5.93-3.28l1.6-1.78v4.97h4.16l.03-26.77c-1.48-.03-2.96-.1-4.44-.04.02 1.28.18 2.69-.23 3.9-1.69-.19-3.48-4.61-11.38-4.2Zm35.27-.02c-3.82.68-7.09 2.3-9.34 5.6a15.18 15.18 0 0 0-2.21 11.52q.06.32.15.64.08.32.18.63l.22.62.24.6.28.6.3.58q.16.29.34.56.17.28.36.55l.39.53q.2.26.41.5l.44.5.46.46.49.44.5.41.53.4.55.36a14.6 14.6 0 0 0 11.05 1.46c2.78-.75 4.75-2.2 6.54-4.4-.88-.99-1.75-1.96-2.72-2.87-.81 1.14-1.6 2.04-2.7 2.94-2.5 1.18-5.1 1.73-7.8.74a9.19 9.19 0 0 1-5.12-5.12 11.9 11.9 0 0 1-.08-8.94 8.93 8.93 0 0 1 4.73-5 9.57 9.57 0 0 1 7.14-.1 9.18 9.18 0 0 1 4 3.36c.87-1.04 1.77-2.07 2.62-3.13a12.62 12.62 0 0 0-8.72-4.46q-1.62-.12-3.23.02Zm-248.9.29c-3.24.53-5.71 1.05-7.73 3.88q-.36.5-.7 1.03l-.01-4.73-4.23.02-.04 24.36c.05.85-.09 1.2.53 1.82 1.24.38 2.49.07 3.76.08 0-4.9-1.15-16.12 2.56-19.66 1.96-1.88 4.64-2.23 7.22-2.56.05-1.2.36-3.17-.28-4.2a2.5 2.5 0 0 0-1.08-.04Zm17.04 0c-3.7.48-6.9 1.82-9.29 4.82a13.62 13.62 0 0 0-2.78 10.1l.1.68.14.66.16.66.2.65.24.64.26.62.3.61.32.6q.17.29.36.57.18.29.38.56.2.28.41.54l.44.52.46.5.49.47.5.45.54.42c3 2.24 6.46 2.9 10.1 2.65 3.84-.47 7.14-1.82 9.55-4.98l.4-.55.36-.56.34-.6.31-.6q.15-.3.28-.61l.25-.63.22-.64q.1-.32.18-.65.09-.33.15-.66.07-.33.12-.67.06-.33.1-.67l.05-.67.02-.68-.01-.68-.05-.67q-.03-.34-.08-.67l-.11-.67-.15-.65-.19-.65-.21-.64-.25-.63-.27-.62-.3-.6-.34-.58-.36-.57-.4-.55-.4-.53-.45-.51-.47-.49q-.24-.24-.49-.46l-.5-.44-.54-.41a14.4 14.4 0 0 0-10.09-2.53Zm23.42-.14.07 16.43c.01 2.97.28 6.22-.14 9.15-.17 1.17-.42 2.33-1.28 3.19a3.4 3.4 0 0 1-2.66.92c-.94-.05-1.8-.45-2.65-.82l-1.29 3.29c1.45.64 2.75 1.15 4.33 1.38 2.32-.14 4.57-.66 6.2-2.44a7.68 7.68 0 0 0 1.8-3.98c.62-3.36.3-7.07.29-10.48l-.06-16.6c-1.53.08-3.1.24-4.6-.04Zm22.38.1c-3.64.76-6.77 2.4-8.9 5.57-2.14 3.17-2.7 7.25-1.93 10.96a12.5 12.5 0 0 0 5.74 8.33c3.49 2.1 8.06 2.57 11.98 1.56 2.51-.65 4.74-2 6.4-4l-2-2.4c-1.21.72-2.4 1.48-3.69 2.03-3.17.95-6.42 1.37-9.48-.24-2.63-1.38-3.87-3.63-4.78-6.35l22.07.02c0-4.44-.34-8.72-3.7-12.05-2.75-2.7-6.59-3.61-10.34-3.5l-1.37.06Zm33.54.08c-4.01.27-7.43 1.3-10.17 4.46q-.22.26-.42.53l-.4.54q-.2.28-.37.57-.18.28-.34.58l-.32.6-.28.6-.26.63-.22.64-.2.65-.16.65-.13.67-.1.66-.06.68-.03.67v.67l.04.68a13.97 13.97 0 0 0 4.77 9.55 13.28 13.28 0 0 0 10.02 2.97 11.05 11.05 0 0 0 8.64-5.54c-.98-.81-1.97-1.85-3.17-2.3-.54.3-.33.1-.66.56-1.82 1.86-3.77 3.23-6.49 3.28a8.1 8.1 0 0 1-5.97-2.64l-.34-.38-.32-.4-.3-.4-.28-.44-.25-.44-.23-.45q-.12-.23-.21-.47l-.2-.47-.15-.49q-.08-.24-.14-.49l-.11-.5-.09-.5-.06-.5-.04-.51v-.51l.01-.51a9.15 9.15 0 0 1 3.24-6.62 8.61 8.61 0 0 1 6.51-2.06 9.24 9.24 0 0 1 5.88 3.5c1.04-.67 2.13-1.3 3.1-2.05-1.34-2.6-3.07-4.19-5.91-5.04a16.87 16.87 0 0 0-3.83-.63Zm196 0c-1.25.09-2.5.17-3.75.17l-.02 18.02c0 2.77-.35 6.06.18 8.75.48.4.49.32 1.07.35h3.6c0-3.1.46-26.14-.23-27.3-.28-.02-.56-.05-.84.02Zm20.14-.08c-3.93.87-7.2 2.42-9.46 5.93a14.76 14.76 0 0 0-1.85 11.02l.17.68.2.67.23.65.27.65q.14.32.3.63.15.31.33.61l.36.6q.18.3.38.58.2.29.42.56l.44.54.47.51.5.5.52.46.54.44.56.4.59.4.6.34.63.33.64.29.66.26.66.23.68.2.68.16q.35.08.7.13.34.06.7.1l.7.07.7.03h.7l.7-.04.7-.07.7-.1.69-.14c3.12-.73 5.83-2.6 7.88-5.03l-2.98-2.36-2.86 2.05c-2.64 1.33-5.03 1.94-7.93.97a9.7 9.7 0 0 1-5.86-5.5c-1.09-2.43-.93-5.58.08-8.02a9.72 9.72 0 0 1 5.17-5.35c2.61-1.05 4.88-.53 7.34.59 1.04.47 2.06 1.2 3.1 1.6.78.32 1.83-.07 2.5-.47.34-.56.47-.8.34-1.48-.25-1.42-1.99-2.68-3.16-3.31-2.85-1.54-6.29-1.59-9.43-1.3Zm27.63.01c-3.9.84-7 2.69-9.18 6.1l-.36.6-.33.62-.3.64q-.14.32-.26.65l-.24.66-.2.67q-.09.34-.16.69-.08.34-.14.69-.06.34-.1.7-.04.34-.06.7l-.03.7v.7l.04.7.08.7.1.7.15.68.17.68.2.67.25.66q.12.33.27.65.14.32.3.63l.33.62.37.6q.19.3.4.58l.41.56q.22.28.45.54.23.27.47.52l.5.5q.26.24.53.46l.54.45.57.41.59.39c3.54 2.19 7.92 2.47 11.9 1.47a11.67 11.67 0 0 0 6.75-4.61 24.94 24.94 0 0 1-3.03-2.6c-.6.56-1.2 1.16-1.86 1.67-2.65 1.59-5.38 2.43-8.46 1.62a9.21 9.21 0 0 1-5.7-4.5c-.63-1.15-.89-2.4-1.16-3.67 7.03-.16 14.2.29 21.19-.12.35-4.1-.05-8.12-2.85-11.4-2.14-2.5-5.25-3.65-8.48-3.83-1.2-.07-2.47.02-3.66.15ZM73.17 439c-5.1.77-9.68 2.66-12.78 6.96-2.8 3.89-3.62 8.81-2.8 13.48.72 4.2 2.94 7.7 6.43 10.15 4.34 3.04 10.02 3.93 15.19 2.98a15.53 15.53 0 0 0 10.25-6.5q-2.18-1.87-4.44-3.66l-1.91-1.5a7.98 7.98 0 0 1-5.49 3.74c-2.6.46-5.5.07-7.63-1.57a8.83 8.83 0 0 1-3.2-6.33 9.81 9.81 0 0 1 2.4-7.43q.29-.3.6-.58.3-.28.63-.52t.69-.45q.35-.21.73-.38.37-.17.76-.3.39-.14.79-.24.4-.1.8-.15.41-.05.82-.07c3.41-.12 6 1.77 8.43 3.93 1.82-1.85 3.72-3.4 5.72-5.05a16.01 16.01 0 0 0-11.1-6.47 18.4 18.4 0 0 0-4.9-.04Zm36.3.02c-5.37.57-10.19 2.22-13.67 6.57-2.76 3.44-3.82 8.26-3.26 12.59a16.46 16.46 0 0 0 6.27 11.04c4.17 3.19 9.03 3.78 14.12 3.58 5.47-.88 10.07-2.64 13.4-7.3l.45-.68q.22-.34.42-.69l.4-.7q.18-.36.34-.73.17-.37.32-.75.15-.37.28-.76.13-.38.24-.77l.2-.78q.1-.4.16-.8l.13-.8.08-.8.04-.8v-.81q0-.4-.03-.81l-.08-.8q-.04-.4-.11-.8-.07-.41-.16-.81l-.2-.8q-.11-.4-.24-.79l-.27-.77q-.15-.39-.32-.76l-.35-.75-.39-.72q-.2-.36-.42-.7-.22-.35-.46-.69-.24-.34-.5-.66-.25-.32-.52-.63l-.55-.61q-.28-.3-.58-.58l-.61-.55-.64-.52-.67-.49a20.17 20.17 0 0 0-12.82-3.37Zm258.7-.02c-5.08.8-9.44 2.54-12.59 6.78l-.48.68-.45.7-.41.73q-.2.37-.37.74l-.34.76-.3.78-.26.8q-.12.39-.22.8l-.18.8q-.08.41-.14.83-.06.4-.1.82l-.05.83q-.02.42-.01.84l.02.83.07.83.11.82a16.8 16.8 0 0 0 7.04 10.96c4.13 2.91 9.52 3.96 14.5 3.4 4.92-.64 9.83-2.66 12.88-6.74 2.73-3.64 3.7-8.62 3.01-13.07l-.14-.8q-.08-.39-.19-.78-.1-.39-.22-.77-.12-.39-.26-.76-.14-.38-.3-.75-.15-.37-.33-.73-.17-.36-.37-.72l-.4-.7-.44-.67q-.23-.33-.48-.65-.24-.32-.5-.62l-.54-.6q-.27-.3-.56-.58l-.6-.54-.61-.51q-.32-.25-.65-.48c-4.48-3.22-9.78-3.78-15.14-3.26Zm78.23.01c-3.84.55-7.98 1.4-10.4 4.77a10.26 10.26 0 0 0-1.67 7.49 8.2 8.2 0 0 0 3.76 5.28c4 2.62 13.29 3.1 15.6 5.94.06.56.11.7-.24 1.18a5.51 5.51 0 0 1-3.6 1.9c-5.07.6-9.14-1.05-13.63-3.1a118.25 118.25 0 0 0-2.86 6.62c4.32 2.98 10.07 3.91 15.2 3.99 4.85-.46 9.1-1.1 12.36-5.15a9.18 9.18 0 0 0 1.95-7.3c-.33-2.25-1.77-4.05-3.6-5.3-4.26-2.87-14.15-3-15.86-5.8-.09-.8-.03-1.24.47-1.9.69-.91 1.77-1.59 2.92-1.71 4.28-.47 8.13.77 11.94 2.6 1.16-2.16 2-4.48 2.9-6.76-4.45-2.33-10.24-3.53-15.24-2.75Zm-160.73.29-.57.14c-.6 1.11-.19 29.09-.19 32.76l9.04.02.44-.24c.55-2.66.1-6.8.1-9.6V439.3l-8.82-.01Zm-150 .17q-.12 16.43-.07 32.85h8.8v-17.36c2.38 4.94 5.44 9.68 8.53 14.2l4.39.04q4.47-7.05 8.35-14.44c.18 5.18.04 10.36.06 15.53.04.72-.06 1.3.34 1.9 2.76.39 5.74.14 8.52.11l-.11-32.87-7.34-.03c-3.94 6.61-8.19 13.35-11.67 20.2-5-6.13-8.26-13.65-12.81-20.13-2.33-.01-4.66-.07-6.98 0Zm46.77-.04.05 32.73q4.78.07 9.56.08l.02-8c4.13.02 8.33.27 12.34-.9 3.44-1.38 6.4-3.3 7.88-6.88 1.18-2.85 1.3-6.58.1-9.44-1.28-3.05-4.1-5.25-7.14-6.39-5.53-2.07-16.65-1.22-22.81-1.2Zm36.37 0 .04 32.78c9-.06 18.03-.2 27.04-.12l-.02-7.21q-8.78-.05-17.55.06c-.04-1.84-.19-3.74.08-5.56.47-.43.2-.32.82-.35l14.53.08-.01-6.99-15.48.01.01-5.49 16.9.03c.03-2.41.08-4.83.02-7.24h-26.38Zm30-.03.06 7.42 10.68-.08v25.39q4.69.06 9.37.03l.02-10.6v-14.87l11.2.01.01-7.31c-10.44 0-20.9-.13-31.33 0Zm50.91.02.02 7.31 10.78-.05c0 8.54-.1 17.1 0 25.64l9.59-.04v-10.46l.03-15.03 10.68.02-.02-7.42-31.08.03Zm36.07.02.1 32.73 9.83-.02-.03-32.73-9.9.02Zm60.22-.03c0 10.97-.16 21.95-.02 32.92l9.34.02V455c4.71 5.9 9.63 11.78 14.65 17.42 2.68-.02 5.4.06 8.07-.19v-32.9l-9.3.06-.01 17.59c-2.88-3-5.4-6.38-8.07-9.56-2.25-2.7-4.7-5.25-6.83-8.05l-7.83.03Z"/>
  <path fill="#96D3AD" d="M244.06 38.52c-1.1-.02-2.12-.08-2.9-.97a2.12 2.12 0 0 1-.5-1.8c.2-1.2.93-1.73 1.83-2.4 1.04.08 1.93.22 2.65 1.04.46.52.68 1.16.6 1.86-.15 1.16-.8 1.64-1.68 2.27Z"/>
  <path fill="#284163" d="M147.05 60.26c-2.88.35-5.84-.14-8.36-1.63l-.5-.3-.47-.33-.45-.35q-.23-.18-.44-.38l-.42-.4-.4-.4q-.2-.22-.37-.44-.19-.22-.36-.45l-.33-.47-.31-.5q-.15-.24-.28-.5l-.26-.5-.23-.53-.21-.54q-.1-.27-.18-.55l-.15-.55c-.83-3.29-.3-6.96 1.56-9.8 1.98-3.03 5.1-4.65 8.54-5.35 2.99-.26 5.93.3 8.5 1.87a11.23 11.23 0 0 1 5.12 7.16c.73 3.19.23 6.64-1.54 9.4-1.97 3.06-4.99 4.73-8.46 5.54Zm-2.14-19.06c-2.25.39-4.04 1.17-5.35 3.13q-.2.28-.36.58-.16.3-.29.62-.13.32-.23.65t-.17.66q-.07.34-.1.68t-.03.68q0 .35.03.69l.1.68q.07.33.17.65t.23.64q.13.3.3.6.16.3.35.58.2.28.42.53.22.26.47.5.24.22.51.43.27.2.56.38a8.63 8.63 0 0 0 3.97 1.17c2.15-.33 3.85-.89 5.22-2.68a6.87 6.87 0 0 0 1.26-5.15q-.05-.34-.13-.67t-.19-.65q-.11-.32-.26-.62-.14-.31-.31-.6-.18-.3-.38-.57-.2-.27-.43-.52-.23-.25-.48-.48-.25-.23-.53-.43a8.5 8.5 0 0 0-4.35-1.48Z"/>
  <path fill="#1F2A51" d="M183.77 42.77c5.51.04 9.6-1.2 14.33-4-.08 2.4-.5 4.2-2.38 5.88a8.2 8.2 0 0 1-6.16 1.98 7.13 7.13 0 0 1-5.79-3.86Z"/>
  <path fill="#96D3AD" d="M145.49 55.05a8.63 8.63 0 0 1-3.97-1.17q-.3-.17-.56-.38-.27-.2-.51-.44-.25-.23-.47-.49-.22-.25-.42-.53-.19-.28-.35-.58-.17-.3-.3-.6-.13-.32-.23-.64t-.17-.65l-.1-.68q-.03-.34-.03-.69 0-.34.03-.68t.1-.68q.07-.33.17-.66t.23-.65q.13-.31.3-.62.16-.3.35-.58c1.31-1.96 3.1-2.74 5.35-3.13a8.5 8.5 0 0 1 4.35 1.48q.28.2.53.43.25.23.48.48.23.25.43.52.2.27.38.57.17.29.31.6.15.3.26.62.11.32.2.65.07.33.12.67c.26 1.8-.15 3.7-1.26 5.15-1.37 1.8-3.07 2.35-5.22 2.68Z"/>
  <path fill="#1F2A51" d="M161.96 46.18c3.34-.62 16-4.54 18-4.1 1.28 3.36 2.92 5.49 6.3 6.99l1.13.46c-4.17 11.41-8.98 22.55-13.73 33.72-2.03 4.76-3.86 9.63-5.95 14.35l-15.35-34.37c4.2-2.25 7.57-5.67 9-10.3.69-2.23.77-4.45.6-6.75Z"/>
  <path fill="#96D3AD" d="M268.1 100.75a17.9 17.9 0 0 1-11.78-3.2l-.61-.47-.6-.5-.56-.54q-.28-.27-.54-.55l-.51-.59-.48-.6q-.24-.32-.45-.64-.22-.32-.42-.65l-.4-.67q-.18-.34-.34-.7-.17-.34-.32-.7-.16-.36-.29-.72l-.25-.73q-.11-.37-.2-.75l-.18-.76-.14-.76c-.67-4.5.68-9.5 3.48-13.08 2.94-3.76 7.04-5.65 11.7-6.24 3.94-.38 8.1.82 11.3 3.16l.64.5.63.53.6.57q.3.29.57.6.28.3.54.61.26.32.5.65.25.33.48.67.23.34.44.7.22.34.41.7.2.37.37.74.18.37.33.75.16.38.3.77l.26.78.21.8.18.8.14.8.09.82.05.82v.82l-.02.82-.07.82-.11.82-.15.8-.2.8q-.1.4-.22.79l-.27.77q-.14.39-.3.77l-.35.74-.37.73q-.2.36-.42.71-.21.35-.44.69l-.48.66c-2.94 3.89-7.04 5.69-11.76 6.34Zm-2.02-28.46c-3.65.4-6.78 1.62-9.14 4.58a12.12 12.12 0 0 0-2.47 9.16l.09.6.1.58.15.58.17.58.2.56.23.55.26.54.28.53.31.51.34.5.36.48.38.46.4.43.44.42.45.4q.22.2.46.37c2.56 1.92 5.4 2.5 8.53 2.48 3.24-.37 6.18-1.8 8.28-4.34l.38-.48.36-.5.34-.52.3-.54q.15-.27.28-.55l.25-.56q.12-.28.22-.57l.19-.59.16-.6.13-.6.1-.6.07-.62q.03-.3.04-.61v-.62l-.02-.61-.06-.61a12.5 12.5 0 0 0-4.77-8.36 12.75 12.75 0 0 0-7.79-2.43ZM230.37 86.43c-2.08.06-3.84.02-5.75-.96q-.37-.19-.72-.41-.35-.23-.67-.49-.32-.26-.62-.55-.3-.3-.56-.61-.27-.32-.5-.67-.23-.34-.43-.7-.2-.37-.36-.76-.16-.38-.28-.78l-.12-.44-.1-.45-.08-.45-.05-.45-.03-.46v-.91l.05-.46.06-.45.09-.45.1-.44.13-.44.16-.43.17-.42.2-.41.21-.4c1.46-2.5 3.73-3.62 6.41-4.3a9.55 9.55 0 0 1 5.28.95q.38.2.74.43.35.24.69.5.33.27.63.58.3.3.58.63.27.33.5.68.24.36.44.74.2.37.37.77.16.4.28.8a8.9 8.9 0 0 1-.74 7.05c-1.4 2.4-3.51 3.47-6.08 4.16Zm-3.15-13.92c-1.68.85-2.92 1.84-3.5 3.7q-.08.25-.13.5l-.08.51-.02.52.02.52.08.5q.05.26.13.51t.18.49l.22.46a5.36 5.36 0 0 0 3.49 2.58c.9.21 1.88.23 2.8.1 1.62-.75 2.85-1.71 3.45-3.46l.14-.5q.06-.26.09-.52l.04-.52-.02-.52-.06-.52q-.05-.26-.12-.51l-.16-.5q-.1-.24-.22-.47a5.48 5.48 0 0 0-3.4-2.8c-.94-.24-1.98-.15-2.93-.07Z"/>
  <path fill="#284163" d="M117.04 86.77c-1.78.14-3.34 0-4.92-.9a7.46 7.46 0 0 1-3.5-4.73q-.09-.37-.14-.74-.06-.37-.07-.74-.02-.37 0-.74.03-.38.08-.75.06-.36.16-.72.1-.37.23-.72.13-.34.3-.68.16-.33.36-.65c1.35-2.17 3.4-3.12 5.82-3.64a9.3 9.3 0 0 1 3.97.71 7.07 7.07 0 0 1 3.94 4.28q.12.34.2.7.1.36.14.72.05.37.06.73.01.37-.01.74-.03.36-.09.72-.06.37-.16.72t-.23.7q-.13.34-.3.67c-1.26 2.43-3.36 3.5-5.84 4.32Z"/>
  <path fill="#1F2A51" d="M267.62 96.6c-3.14.03-5.97-.56-8.53-2.48q-.24-.18-.46-.37l-.45-.4q-.22-.2-.43-.42l-.4-.43-.4-.46-.35-.48-.34-.5-.3-.5-.29-.54-.26-.54q-.12-.27-.22-.55l-.2-.56-.18-.58-.14-.58q-.07-.29-.11-.58l-.09-.6c-.41-3.28.4-6.56 2.47-9.16 2.36-2.96 5.5-4.18 9.14-4.58 2.82.01 5.51.72 7.79 2.43a12.5 12.5 0 0 1 4.77 8.36l.06.6.02.62v.62l-.04.61-.07.62-.1.6-.13.6-.16.6q-.09.3-.2.59l-.21.57-.25.56q-.13.28-.28.55l-.3.54-.34.52-.36.5-.38.48a12.34 12.34 0 0 1-8.28 4.34Zm-2.5-19.47c-2.22.8-4.1 1.95-5.16 4.16q-.16.34-.29.7-.12.36-.21.72-.09.37-.14.75-.05.37-.06.75 0 .38.02.75.03.38.1.75t.18.74q.1.36.25.7a7.3 7.3 0 0 0 4.18 4.04c1.44.55 2.83.5 4.34.4 1.99-.6 3.66-1.7 4.7-3.56q.17-.32.32-.65.14-.34.25-.68.11-.35.18-.7.08-.36.12-.72.03-.36.04-.73 0-.36-.04-.72-.03-.36-.1-.72t-.18-.7a7.52 7.52 0 0 0-3.77-4.43c-1.58-.82-3-.88-4.72-.85ZM230.41 82.9c-.92.13-1.9.11-2.8-.1a5.36 5.36 0 0 1-3.49-2.58l-.22-.46q-.1-.24-.18-.49-.08-.25-.13-.5l-.08-.51-.02-.52.02-.52.08-.5q.05-.26.13-.5c.58-1.87 1.82-2.86 3.5-3.71.95-.08 2-.17 2.93.07a5.48 5.48 0 0 1 3.4 2.8q.12.23.22.47.1.25.16.5l.12.5.06.53.02.52q0 .26-.04.52-.03.26-.1.52-.05.25-.13.5c-.6 1.75-1.83 2.7-3.45 3.46Z"/>
  <path fill="#96D3AD" d="M268.33 91.6c-1.51.09-2.9.14-4.34-.41a7.3 7.3 0 0 1-4.18-4.03q-.15-.35-.25-.71-.11-.37-.18-.74-.07-.37-.1-.75-.03-.37-.02-.75.01-.38.06-.75.05-.38.14-.75.09-.36.21-.72.13-.36.29-.7c1.06-2.21 2.94-3.35 5.17-4.16 1.72-.03 3.14.03 4.72.85a7.52 7.52 0 0 1 3.77 4.43q.1.34.18.7.07.36.1.72.04.36.04.72 0 .37-.04.73t-.12.71q-.07.36-.18.7-.11.35-.25.69-.15.33-.32.65a7.69 7.69 0 0 1-4.7 3.57Z"/>
  <path fill="#1F2A51" d="m83.25 107.03-.24-.2v-.6c.9-1.54 2.34-2.86 3.57-4.17 6.05-6.44 13.36-12.12 21.91-14.8 2.55 2.07 5.44 3.13 8.76 2.77a11.58 11.58 0 0 0 7.99-4.62q.45-.61.85-1.25c13.28 6.62 27.12 12.22 40.32 18.97 4.4 8.97 8.07 18.27 11.88 27.5a1880.72 1880.72 0 0 1-37.48-18.11q-6.59-3.28-13.22-6.46c-2.36-1.14-4.76-2.44-7.22-3.32-7.24 3.17-14.16 7.05-21.4 10.23-2.78-3.35-5.8-6.01-10.36-6.47-1.8-.18-3.6.1-5.36.53ZM141.26 87.9c3.92-1.6 13.09-1.51 17.78-2.19l5.75 13.1c-7.32-2.63-16.49-7.35-23.53-10.91Z"/>
  <path fill="#96D3AD" d="M218.13 115.96c-2.2.08-4.11-.05-6.08-1.19q-.37-.21-.72-.46t-.67-.54q-.32-.28-.62-.6-.29-.31-.55-.65-.26-.35-.48-.71-.22-.37-.4-.76-.2-.39-.34-.8-.14-.4-.25-.81-.1-.44-.16-.88-.06-.45-.08-.9-.02-.44.01-.89t.1-.89q.08-.44.2-.87.11-.43.27-.85.16-.42.36-.82.2-.4.44-.78c1.45-2.27 3.55-3.28 6.07-3.89 1.85-.12 3.65.1 5.32.94a8.55 8.55 0 0 1 4.24 5.06 9.16 9.16 0 0 1-.59 7.2c-1.37 2.43-3.52 3.38-6.07 4.09ZM215.07 102c-1.7.83-2.99 1.76-3.62 3.61q-.09.24-.15.49t-.09.5l-.04.5v.52l.06.5q.04.26.1.5.07.25.16.49l.2.47a5.3 5.3 0 0 0 3.15 2.63c.97.3 2.08.36 3.08.23 1.6-.7 2.8-1.38 3.51-3.04a5.1 5.1 0 0 0-.1-4.22 5.79 5.79 0 0 0-3.5-3 7.5 7.5 0 0 0-2.76-.18Z"/>
  <path fill="#1F2A51" d="M217.92 112.44c-1 .13-2.11.08-3.08-.23a5.3 5.3 0 0 1-3.14-2.63q-.12-.23-.2-.47-.1-.24-.16-.49-.07-.24-.11-.5l-.06-.5v-.51q0-.26.04-.51.03-.25.1-.5.05-.25.14-.49c.63-1.85 1.93-2.78 3.62-3.6a7.5 7.5 0 0 1 2.77.17 5.79 5.79 0 0 1 3.5 3 5.1 5.1 0 0 1 .1 4.22c-.71 1.66-1.93 2.35-3.52 3.04ZM88.7 128.37c-2.59.06-4.9-.31-7.08-1.82q-.38-.27-.74-.57-.35-.3-.68-.63-.32-.33-.6-.7-.3-.36-.55-.75-.25-.4-.46-.8-.2-.42-.37-.86-.17-.43-.29-.88-.12-.45-.2-.9-.07-.46-.1-.93-.02-.46 0-.93.02-.46.08-.93.07-.46.18-.9.1-.46.26-.9t.36-.86q.2-.42.44-.82.23-.4.51-.78c1.82-2.4 4.25-3.22 7.1-3.6 2.02-.15 4.4.45 6.1 1.51q.39.25.76.54.37.28.7.6.35.33.66.68.3.36.57.74.27.38.5.79.24.4.42.83.2.43.34.88.15.44.25.9a9.1 9.1 0 0 1-1.25 7.03c-1.68 2.51-4.08 3.45-6.9 4.06Zm-1.4-12.44c-.99.36-2 .71-2.49 1.74-.35.76-.42 1.5-.05 2.27a3.28 3.28 0 0 0 1.93 1.67c.43.13.88.18 1.32.24 1.1-.55 1.96-1.03 2.33-2.3.21-.7.14-1.4-.2-2.04a2.97 2.97 0 0 0-1.89-1.4c-.3-.1-.63-.13-.95-.18Z"/>
  <path fill="#96D3AD" d="M88 121.85c-.43-.06-.88-.11-1.3-.24a3.28 3.28 0 0 1-1.94-1.67c-.37-.77-.3-1.51.05-2.27.49-1.03 1.5-1.38 2.5-1.74.31.05.63.09.94.18.79.22 1.48.66 1.88 1.4.35.64.42 1.34.21 2.04-.37 1.27-1.22 1.75-2.33 2.3Z"/>
  <path fill="#FBFCF9" d="M318.63 144.97c-.33.05-.76.14-1.1.12a2.33 2.33 0 0 1-1.72-1.02c-.4-.6-.36-.8-.28-1.49.7-1.12 1.64-1.64 2.84-2.14 6.14-2.58 12.92-4.27 19.27-6.3a932.33 932.33 0 0 0 36.05-12.22c.6-.09 1.22-.18 1.8.04.63.24 1.17.7 1.42 1.34.25.64.15 1.26-.15 1.86a3.3 3.3 0 0 1-1.73 1.46c-6.09 2.23-12.5 3.92-18.67 5.96-12.57 4.15-25.08 8.5-37.73 12.39Z"/>
  <path fill="#1F2A51" d="M284.33 139.64a8.64 8.64 0 0 1-4.79-1.1q-.32-.19-.62-.41-.3-.22-.58-.48-.27-.25-.52-.53t-.47-.59q-.22-.3-.4-.62-.2-.33-.34-.67-.16-.34-.27-.7-.12-.36-.2-.72-.09-.37-.13-.74-.05-.37-.06-.74l.02-.74q.03-.38.1-.74.07-.37.18-.73.1-.36.24-.7.14-.35.32-.68.18-.33.39-.63c1.4-2.06 3.34-2.86 5.7-3.34 1.65-.1 3.24.12 4.71.95a7.01 7.01 0 0 1 3.32 4.44q.1.37.14.74.05.38.07.75.01.38-.01.76-.02.37-.08.74-.06.38-.16.74t-.23.72q-.13.35-.3.69-.17.34-.37.66c-1.32 2.12-3.27 3.17-5.66 3.67Z"/>
  <path fill="#96D3AD" d="M134.38 146.69c-1.86.16-3.51.1-5.24-.7q-.42-.18-.81-.41-.4-.23-.76-.5-.37-.26-.71-.57-.34-.3-.65-.64-.3-.33-.58-.7-.27-.36-.5-.75-.24-.39-.44-.8-.2-.41-.35-.84a8.28 8.28 0 0 1 .53-6.58c1.36-2.61 3.54-3.91 6.25-4.75 2.2-.13 4.06-.18 6.09.87q.38.2.74.43.36.23.69.5.33.27.64.57.3.3.57.64.27.33.51.68.24.36.44.74t.36.77q.16.4.28.81a9.1 9.1 0 0 1-.86 7.07c-1.4 2.38-3.6 3.52-6.2 4.16Zm-2.26-14.15c-1.73.53-3.1 1.17-4.04 2.81q-.14.25-.25.5-.11.26-.2.53-.09.27-.14.55-.06.27-.09.55-.03.29-.03.57 0 .28.03.56t.1.56q.05.27.14.54.09.27.2.53.12.26.27.5.14.25.3.48.18.23.37.44l.4.4.45.35q.23.16.48.3.25.14.51.25c1.02.44 2 .43 3.09.4 1.77-.61 3.18-1.4 4.05-3.13q.12-.23.22-.48.1-.25.17-.5.07-.26.12-.53.04-.26.06-.53.02-.26.01-.53 0-.27-.04-.53-.03-.26-.1-.52-.05-.26-.14-.52-.08-.25-.2-.49-.1-.24-.23-.46-.13-.23-.29-.44-.15-.22-.33-.42-.17-.2-.36-.37l-.4-.34-.45-.29q-.22-.14-.46-.25a6.28 6.28 0 0 0-3.22-.5Z"/>
  <path fill="#FBFCF9" d="M378.48 140.6c1.88-3.88 4.62-8.55 8.93-10.08 1.89-.68 4.1-.53 5.9.36 2.24 1.11 3.68 3.32 4.37 5.67 1.54 5.27-.77 10.88-3.39 15.39-2.2 3.78-7.03 12.14-9.95 15.11.9.82 1.46 1.33 1.57 2.6.07.84-.18 1.57-.75 2.18-.58.61-1.43.96-2.27.96a2.5 2.5 0 0 1-1.85-.78 3 3 0 0 1-.7-2.32c.1-.64.32-1.28.52-1.88 1.32-8.36 13.57-17.62 13.35-27.28-.04-1.89-.6-4.01-2.02-5.33a3.96 3.96 0 0 0-3.15-1.15c-4.7.26-4.68 5.02-7.13 7.75-.72.1-1.76.16-2.46-.08s-.73-.48-.97-1.12Z"/>
  <path fill="#FBFCF9" d="M374.25 130.47c.95 3.33 1.86 6.77 3.13 10 3.11 10.51 4.7 17.01 1.92 27.96-.75 1.66-1.25 3.58-1.9 5.3-1.94 5.23-4.86 11.46-5.64 16.92l-.07.5c-.22 1.59.13 3.05.44 4.6-1.96.66-4.61 2.28-6.57 2.25-1.66-.64-2.44-3.77-3.15-5.37-3.2-1-6.04-2.8-8.99-4.33-2.54-1.33-5.15-2.5-7.62-3.98-14.79-8.82-19.1-21.27-23.04-37.1 4.7-1.74 9.57-3.06 14.34-4.59 7.35-2.35 14.63-4.93 21.97-7.31 5.05-1.64 10.17-3.06 15.18-4.85Zm-3.96 15.24c-.66.37-1.14.6-1.54 1.28-.27 2.2 1.35 4.63 1.9 6.72.74 2.77.67 5.95.13 8.75a30.24 30.24 0 0 1-2.78 7.77c-.55 1.08-3.16 4.84-3.3 5.68-.05.28.1.56.16.83.53.67.97 1.01 1.7 1.43 3.93-2.93 7.04-12.18 7.74-16.92.62-4.24-.08-11-2.62-14.55-.38-.52-.77-.8-1.39-1Z"/>
  <path fill="#1F2A51" d="M133.7 143.36a6.88 6.88 0 0 1-3.08-.4q-.26-.11-.5-.25-.26-.14-.49-.3-.23-.17-.44-.36-.22-.18-.4-.4-.2-.2-.37-.43-.17-.23-.31-.48-.15-.24-.26-.5-.12-.26-.21-.53t-.15-.54q-.06-.28-.09-.56t-.03-.56q0-.28.03-.57.03-.28.09-.55.05-.28.14-.55.09-.27.2-.53.11-.25.25-.5c.93-1.64 2.3-2.28 4.04-2.81a6.28 6.28 0 0 1 3.22.5q.24.1.46.24.23.14.44.3.21.15.4.33.2.18.37.37.18.2.33.42.16.2.29.44.13.22.24.46l.19.5q.09.25.15.5.06.27.09.53t.04.53l-.01.53q-.02.27-.06.53-.05.27-.12.52-.07.26-.17.5-.1.26-.22.5c-.87 1.73-2.28 2.5-4.05 3.12Z"/>
  <path fill="#96D3AD" d="M173.19 162.31c-2.1.28-4.05.26-6.02-.57l-.42-.19-.41-.21-.4-.24-.39-.25-.37-.27-.36-.3-.34-.3-.32-.33-.31-.34-.3-.36-.26-.37-.25-.39-.24-.4-.2-.4-.2-.43-.16-.43-.15-.43q-.07-.21-.12-.43l-.1-.44-.08-.44-.06-.45-.03-.45v-.9l.04-.45.06-.45.09-.44.1-.44.13-.43.15-.43.17-.42.2-.4c1.19-2.36 3.22-3.71 5.65-4.57 2.1-.25 4.02-.16 5.98.73l.42.2.42.23.4.25.38.27.38.28.36.3.34.33.33.34q.16.17.3.36.16.18.3.37l.27.38.26.4.23.4.2.43q.11.21.2.43l.17.44q.14.4.24.82.1.42.16.84.05.43.07.86.02.42 0 .85-.03.43-.1.85-.07.43-.17.84-.11.42-.26.82-.15.4-.34.79c-1.2 2.45-3.18 3.65-5.64 4.54Zm-3.26-13.96c-1.7.38-3.15 1.06-4.1 2.6a4.93 4.93 0 0 0-.51 3.88 5.73 5.73 0 0 0 2.96 3.53c1.2.6 2.35.61 3.66.61 1.6-.51 2.82-1.07 3.66-2.6q.13-.24.23-.48t.18-.49q.08-.25.13-.5.06-.26.08-.53.03-.26.03-.52t-.03-.52q-.02-.26-.08-.52-.05-.26-.13-.5-.09-.29-.2-.56-.11-.27-.26-.52-.14-.26-.3-.5-.17-.23-.36-.45-.2-.22-.41-.42-.21-.2-.45-.38-.23-.17-.48-.32-.25-.15-.52-.27a7.05 7.05 0 0 0-3.1-.54Z"/>
  <path fill="#1F2A51" d="M366.56 178.17a5.27 5.27 0 0 1-1.7-1.43c-.05-.27-.2-.55-.16-.83.14-.84 2.75-4.6 3.3-5.68a30.24 30.24 0 0 0 2.78-7.77c.54-2.8.61-5.98-.12-8.75-.56-2.09-2.18-4.52-1.91-6.72.4-.68.88-.91 1.54-1.28.62.2 1.01.47 1.39 1 2.54 3.54 3.24 10.3 2.62 14.54-.7 4.74-3.8 13.99-7.74 16.92ZM171.94 158.97c-1.3 0-2.47 0-3.66-.61a5.73 5.73 0 0 1-2.96-3.53c-.36-1.3-.2-2.72.5-3.87.96-1.55 2.4-2.23 4.11-2.61 1.04-.04 2.16.1 3.1.54q.27.12.52.27.25.15.48.32.24.18.45.38.21.2.4.42.2.22.37.45.16.24.3.5.15.25.26.52.11.27.2.55.08.25.13.5.06.27.08.53.03.26.03.52t-.03.52q-.02.27-.08.52-.05.26-.13.51-.07.25-.18.5-.1.23-.23.46c-.84 1.54-2.06 2.1-3.66 2.61Z"/>
  <path fill="#FBFCF9" d="M339.28 181.94c.82.55 1.6 1.13 2.18 1.95.51.73.73 1.57.54 2.45-.16.8-.54 1.6-1.29 2a3 3 0 0 1-2.4.1c-2.16-.79-.76-3.5-2.3-4.18-7.74-3.46-22.52-8.78-25.8-17.07a10.54 10.54 0 0 1 .42-8.56c1.05-2.19 2.73-3.34 4.97-4.1 3.62-.16 6.62.97 9.37 3.35.8.69 1.41 1.34 1.47 2.42-.33.54-.68.82-1.3.98-1.67.44-3.33-1.33-4.63-2.14a4.8 4.8 0 0 0-3.86-.74c-1.14.3-1.88.9-2.46 1.93a6.01 6.01 0 0 0-.48 4.74c2.32 7.72 18.84 13.15 25.57 16.87Z"/>
  <path fill="#1F2A51" d="M107.08 184.57c-2.97.43-5.91.05-8.55-1.42a11.85 11.85 0 0 1-5.7-7.02 12.92 12.92 0 0 1 1.48-9.97c1.95-3.18 4.95-4.85 8.5-5.67 2.68-.18 5.06-.05 7.55 1.14a11.6 11.6 0 0 1 6.15 7.02c.99 3.18.53 6.83-1.06 9.75-1.85 3.43-4.79 5.08-8.37 6.17Zm-3.45-18.9c-1.99.55-3.52 1.42-4.61 3.23q-.2.32-.35.65-.15.34-.27.69-.12.34-.2.7-.1.36-.14.73-.05.36-.06.73-.01.37.01.73.03.37.1.73.05.37.15.72l.21.63.28.6q.15.3.34.57.18.27.4.53.2.25.44.48.23.24.5.44.25.2.53.38t.58.33c1.58.8 3.16.82 4.89.62 2.17-.82 3.84-1.9 4.78-4.12q.14-.32.24-.64.1-.33.17-.67.07-.33.1-.67.04-.34.04-.68 0-.35-.03-.69-.04-.34-.1-.67-.08-.34-.18-.67-.1-.32-.24-.64a6.77 6.77 0 0 0-3.8-3.55 9.2 9.2 0 0 0-3.78-.48Z"/>
  <path fill="#FBFCF9" d="M390.05 170.9c-.26-.02-.3-.02-.6-.07-.95-.16-1.74-.53-2.29-1.37a2.63 2.63 0 0 1-.32-2.07c.28-1.21.96-1.67 1.93-2.34a3.4 3.4 0 0 1 2.72 1.3c.5.68.6 1.43.45 2.24-.2 1.1-1.02 1.71-1.9 2.31Z"/>
  <path fill="#96D3AD" d="M106.43 179.16c-1.73.2-3.3.18-4.9-.62q-.29-.15-.57-.33-.28-.17-.54-.38-.26-.2-.5-.44-.23-.23-.44-.48-.21-.26-.4-.53-.18-.28-.33-.57l-.28-.6q-.12-.31-.2-.63-.1-.35-.17-.72-.06-.36-.09-.73-.02-.36-.01-.73t.06-.73q.05-.37.13-.73.09-.36.2-.7.13-.35.28-.69.16-.33.35-.65c1.09-1.8 2.62-2.68 4.6-3.22a9.2 9.2 0 0 1 3.78.48 6.77 6.77 0 0 1 3.81 3.55q.14.32.24.64.1.33.17.67.07.33.1.67.04.34.04.69 0 .34-.03.68-.04.34-.1.67-.08.34-.18.67-.1.32-.24.64c-.94 2.21-2.61 3.3-4.78 4.12ZM247.68 198.58c-2.25.26-4.29.29-6.38-.76q-.39-.2-.76-.43-.36-.23-.7-.5-.35-.26-.66-.56-.31-.3-.6-.63-.27-.33-.52-.69-.25-.36-.46-.74-.2-.37-.38-.77-.17-.4-.3-.81a9.33 9.33 0 0 1 .61-7.1c1.3-2.44 3.35-3.6 5.88-4.4 1.7-.2 3.28-.2 4.92.38l.43.16.42.19.42.2.4.23.4.25.37.27.36.28.35.31.33.32.3.34.3.36q.15.18.28.37l.26.39.23.4.22.4.19.42q.18.42.32.86.13.44.22.89.1.45.14.9.05.46.05.91 0 .46-.05.92-.05.45-.14.9-.09.45-.23.89-.13.43-.31.85c-1.19 2.7-3.29 4-5.9 5Zm-2.68-14c-1.77.35-3.18.98-4.2 2.55l-.25.46q-.11.23-.2.47-.1.25-.16.5-.07.25-.11.5l-.06.52v.52q.01.26.05.52l.1.5a5.33 5.33 0 0 0 2.46 3.23c1.1.65 2.28.78 3.55.8 1.68-.44 3.04-1 3.98-2.55q.14-.22.25-.46.11-.23.2-.48.09-.24.15-.5l.1-.5.04-.52-.01-.52-.06-.52-.12-.5a5.47 5.47 0 0 0-2.77-3.35 6.91 6.91 0 0 0-2.94-.67Z"/>
  <path fill="#1F2A51" d="M246.18 195.16a6.94 6.94 0 0 1-3.55-.81 5.33 5.33 0 0 1-2.46-3.22l-.1-.51q-.04-.26-.05-.52v-.52q.02-.26.06-.51.04-.26.1-.51.07-.25.17-.5.09-.24.2-.47.12-.24.26-.46c1-1.57 2.42-2.2 4.19-2.55.99.03 2.05.2 2.94.67a5.47 5.47 0 0 1 2.77 3.35l.12.5.06.52q.02.26 0 .52 0 .26-.03.52l-.1.5q-.06.26-.15.5-.09.25-.2.48-.11.24-.25.46c-.94 1.55-2.3 2.1-3.98 2.56Z"/>
  <path fill="#FBFCF9" d="M334.1 190.69c-.35 0-.8 0-1.15-.07l-.3-.09-.28-.11-.27-.14-.26-.17-.23-.2q-.12-.1-.22-.21l-.2-.24-.16-.25a2.9 2.9 0 0 1-.31-2.4c.34-1.15 1.04-1.53 2.06-2.02.33 0 .3 0 .69.05.95.14 1.76.55 2.26 1.4.37.65.43 1.37.27 2.08-.28 1.18-.92 1.72-1.9 2.37Z"/>
  <path fill="#1F2A51" d="M273.28 198.25a9.76 9.76 0 0 1-1.31-.25c-.9-.25-1.6-.9-2.04-1.71l-.14-.3-.1-.32q-.05-.16-.07-.32l-.04-.33v-.33q.01-.17.04-.33.03-.17.08-.33.04-.16.1-.3c.44-1.09 1.2-1.51 2.21-1.98l.64.1c1.09.18 2 .62 2.6 1.6.42.69.52 1.52.3 2.31-.33 1.25-1.2 1.87-2.27 2.49Z"/>
  <path fill="#FBFCF9" d="M359.03 210.89a6.4 6.4 0 0 1-2.07-3.3c-.22-.98.02-1.96.59-2.79 2.27-3.31 11.41-6.15 15.37-7.02.03.01.07.01.1.03.58.36.59.54.8 1.16-.9 2.91-7.6 3.62-9.84 5.7-.34.3-.13 1.42-.12 1.88.03 1.17-.02 2.55-.97 3.38-1.1.97-2.46 1.04-3.86.96Z"/>
  <path fill="#1F2A51" d="M271.59 201.28c2.5-.12 4.18-.39 6.14-2.03 4.67 2.29 9.23 5.07 13.8 7.58.1 2.34.53 3.2 2.27 4.83-3.21 6.52-6.06 13.2-8.94 19.88l-2.29-1.51c-3.47-2.18-12.63-6.52-14.98-8.6-.54-.48-.4-1.52-.44-2.25a5.94 5.94 0 0 0-1.44-3.79l-.2-.25c2.32-4.5 4.2-9.17 6.08-13.86Z"/>
  <path fill="#FBFCF9" d="M374.87 203.31c.2-.78.38-1.57.6-2.35.26-.88.63-1.2 1.41-1.63 2.62.21 5.9.87 8.32 1.92 3.68 1.6 10.76 14.62 12.4 18.67a29.37 29.37 0 0 1-10.43 5.6q-.48-.02-.95-.06c-.82-.1-1.72-.35-2.2-1.09-.89-1.4-.6-3.74-1.16-5.33-.58-1.64-1.78-3.04-2.48-4.63-.7-1.61-1.04-3.98-2.21-5.31-.6-.68-2.65.93-3.33 1.24-1.8.8-4.18.46-6.1.26 0-.72-.1-1.64.1-2.35.7-2.5 3.97-3.69 6.03-4.94Z"/>
  <path fill="#1F2A51" d="M298.68 209.54c-.35.03-.73.09-1.08.08a2.6 2.6 0 0 1-2.06-.91 2.53 2.53 0 0 1-.58-1.93c.12-1.36.8-2.07 1.82-2.9.23 0 .46 0 .68.02a3.3 3.3 0 0 1 2.47 1.23c.5.63.68 1.35.54 2.14-.2 1.14-.92 1.64-1.8 2.27ZM116.69 220.8c-1.85.08-3.48.06-5.2-.79q-.34-.17-.66-.37-.33-.2-.64-.44-.3-.24-.58-.5-.28-.27-.53-.56-.25-.3-.47-.6-.22-.32-.4-.66-.2-.34-.34-.69-.16-.35-.27-.72-.13-.4-.21-.82-.08-.42-.13-.84-.04-.42-.03-.84 0-.42.05-.85.04-.42.13-.83l.22-.82q.13-.4.3-.79.18-.38.4-.75c1.29-2.21 3.3-3.33 5.73-3.93 1.7-.1 3.28.04 4.85.78q.34.15.66.35.33.19.63.41.3.23.58.48.28.26.53.54.26.28.48.58.22.3.41.63.2.33.35.67.15.34.28.7.13.39.22.79.1.4.15.8.05.41.06.82 0 .41-.03.82t-.1.82q-.08.4-.2.8-.1.39-.26.77t-.35.74c-1.26 2.36-3.18 3.5-5.63 4.3Z"/>
  <path fill="#FBFCF9" d="M365.97 216.3c-1.01.35-2 .42-3.08.35a5.22 5.22 0 0 1-3.47-1.88 1.96 1.96 0 0 1-.3-1.72c.19-.72.82-1.23 1.44-1.57 1.82-.1 5.38-.18 6.65 1.37.28.34.48.64.46 1.1-.04 1.1-.92 1.7-1.7 2.35ZM375.6 225.8c-1.1-4.09-3.22-9.4-2.61-13.64.48-.6.95-.53 1.68-.68.49.03.86.15 1.32.3 2.38 2.11 4 13.25 4.5 16.74a28.5 28.5 0 0 0-5.65 2.1c-.53.02-1.25.09-1.69-.24-1.04-.78-1.02-2.62-1.17-3.82a55.5 55.5 0 0 0 3.62-.76Z"/>
  <path fill="#1F2A51" d="M261.9 222.04c-.54.08-1.28.16-1.82.01a3.06 3.06 0 0 1-1.86-1.43 3.02 3.02 0 0 1-.2-2.34c.33-1.11 1.08-1.63 2.04-2.2.22 0 .43 0 .65.02 1 .1 1.96.53 2.58 1.35.49.65.66 1.43.5 2.23-.22 1.2-.92 1.7-1.89 2.36Z"/>
  <path fill="#FBFCF9" d="M367.65 222.73c-.32.07-.63.15-.95.19-1.08.13-2.72-.1-3.5-.92a1.8 1.8 0 0 1-.48-1.61c.13-.86 1.01-1.5 1.61-2.05 1.29.05 2.95-.05 4.15.45.76.32 1.03.61 1.32 1.38-.29 1.3-1.11 1.84-2.15 2.56ZM376.5 261.51c-2.14.83-5.04 2.57-7.35 2.55-.74-.65-1-1.62-1.25-2.54-1.29-4.72-5.08-18.13-2-22.07.93-1.2 3.36-2.22 4.75-2.85 3.78-1.7 7.83-2.82 11.71-4.25 3.66-1.34 7.2-3.45 11.07-4.03l.3.01a9.33 9.33 0 0 1 6.04 3.2c2.15 2.46 7.44 15.76 7.26 18.91-.93 1.32-26.8 9.78-30.52 11.07Zm19.22-26.27-15.37 5.43c-2.92 1.01-6.17 1.88-8.94 3.26-.98.5-1.83 1-2.45 1.91-.59 3.67 1.74 9.48 2.5 13.3l3.25-1.13c6.16-2.3 12.37-4.42 18.57-6.6 3.1-1.1 6.37-2.1 9.36-3.44-.66-2.52-3.28-11.1-5.29-12.46-.5-.34-1.05-.3-1.63-.27Z"/>
  <path fill="#1F2A51" d="M174.75 239.43c-.54.13-1.09.26-1.64.31-.67.06-1.4-.22-1.88-.7a2.63 2.63 0 0 1-.78-1.96c.01-1.39.67-2.24 1.66-3.13l.37-.02c1.24-.02 2.34.17 3.24 1.09.53.54.73 1.12.7 1.89-.04 1.12-.88 1.85-1.67 2.52ZM371.46 259.14c-.76-3.82-3.09-9.63-2.5-13.3a5.87 5.87 0 0 1 2.45-1.91c2.77-1.38 6.02-2.25 8.94-3.26l15.37-5.43c.58-.03 1.12-.07 1.63.27 2 1.35 4.63 9.94 5.3 12.46-3 1.35-6.26 2.34-9.37 3.44-6.2 2.18-12.4 4.3-18.57 6.6l-3.25 1.13Zm21.93-18.72c-2.86 1-19.39 6.14-20.21 7.93-.41.9-.35 2.55.16 3.4.4.67 1.07.96 1.82 1.06.66.09 1.38-.02 2.04-.1 3.46-1.12 18.6-5.62 20.08-8.36.27-.5.4-1.11.24-1.67-.25-.93-1.23-1.77-2.1-2.13-.66-.27-1.33-.2-2.03-.13ZM172.61 243.23c2.92-.24 4.15-.73 6.2-2.82 3.23 2.67 7.8 3.56 11.43 5.56 2.86 1.57 1.31 2.65 2.18 5.09.49 1.4 1.7 2.19 2.94 2.82-2.9 5.6-5.27 11.61-7.88 17.37l-2.33-1.08c-5.48-2.66-10.96-5.32-16.57-7.66.06-2.06-.14-3.4-1.24-5.15q2.47-7.13 5.27-14.13Z"/>
  <path fill="#FBFCF9" d="M377.2 252.72c-.66.07-1.38.18-2.04.09-.75-.1-1.42-.4-1.82-1.06-.5-.85-.57-2.5-.16-3.4.82-1.8 17.35-6.92 20.21-7.93.7-.07 1.37-.14 2.04.13.86.36 1.84 1.2 2.1 2.13.14.56.02 1.17-.25 1.67-1.48 2.74-16.62 7.24-20.08 8.37Z"/>
  <path fill="#1F2A51" d="m199 251.38-.39.02c-1.02.02-1.92-.21-2.62-.98a2.64 2.64 0 0 1-.72-2.1c.11-1.22.74-1.75 1.64-2.47h.87c.97.02 1.87.38 2.51 1.13.52.61.75 1.36.56 2.17-.24 1.08-.98 1.63-1.85 2.23ZM270.95 266.03a7.6 7.6 0 0 1-2.98-.14 5.24 5.24 0 0 1-3.06-2.5q-.12-.24-.22-.49-.1-.24-.16-.5-.07-.25-.12-.51l-.06-.52q-.02-.27 0-.53 0-.26.04-.52.03-.27.1-.52.06-.26.15-.5c.67-1.92 2-2.8 3.78-3.6a7.35 7.35 0 0 1 3.19.29q.26.1.51.23t.5.29q.23.15.45.33.22.18.42.38.2.2.38.41l.33.46q.16.23.29.49.13.25.23.5.1.24.16.48.07.24.11.48l.06.5.02.5q0 .24-.04.5l-.08.48-.14.48q-.07.24-.18.46c-.75 1.67-2.05 2.4-3.68 3.07Z"/>
  <path fill="#96D3AD" d="M404.34 255.98c6.54 2.05 13.39 6.57 18.87 10.66 9.94 7.8 18.38 18.12 19.94 31.08 1.34 11.11-2.59 20.22-9.02 29.06 14.28 6.57 28.15 15.66 33.98 31.06l.28.83c-6.05.15-12.13 0-18.18 0l-35.47-.01H201.12c-20.34.03-40.73.4-61.06-.1q78.09-33.85 156.58-66.75l41-17.4c8.76-3.75 17.62-7.96 26.69-10.9q.23 1.04.49 2.06c.29 1.14.68 2.4 1.78 3 .79.43 1.52.26 2.36.05 3.8-.93 7.62-2.77 11.29-4.15 7.92-2.97 16-6.03 24.1-8.49Z"/>
  <path fill="#1F2A51" d="M163.34 264.31c-.49.01-1 .04-1.48-.02-.8-.1-1.57-.6-2.05-1.24-.5-.7-.62-1.44-.45-2.29.21-1.06.97-1.68 1.84-2.23.48 0 .98-.02 1.46.04.8.1 1.57.61 2.05 1.25.5.68.67 1.46.46 2.29-.28 1.08-.95 1.6-1.83 2.2ZM220.97 287.22c-1.12.06-2.36.18-3.44-.16a5.9 5.9 0 0 1-3.44-2.88q-.13-.27-.24-.55-.1-.27-.18-.56-.08-.29-.13-.58l-.06-.6q-.02-.3 0-.59 0-.3.05-.59.04-.3.12-.58.07-.3.17-.57c.72-1.98 2.23-3.07 4.07-3.91a7.16 7.16 0 0 1 3.63.26q.28.1.55.24.26.14.51.3.25.16.49.34.23.19.45.4.21.2.4.43.2.22.37.47.17.24.31.5.15.26.27.53l.2.54q.09.28.15.56l.1.57q.03.3.03.58l-.02.58q-.02.29-.08.57-.05.29-.13.56-.08.28-.19.55c-.77 1.88-2.17 2.8-3.96 3.6Z"/>
  <path fill="#FBFCF9" d="M149.37 388.22c-.37 0-.73 0-1.1-.04a3.56 3.56 0 0 1-2.56-1.42q-.1-.12-.17-.25l-.15-.27-.11-.28-.09-.3-.05-.3-.02-.3v-.3l.05-.3c.26-1.38 1.18-2.04 2.3-2.73.68-.03 1.37-.07 2.02.1a3.3 3.3 0 0 1 1.97 1.61 3 3 0 0 1 .2 2.4c-.4 1.23-1.2 1.8-2.3 2.38ZM397.85 388.09c-.33-.01-.67-.03-1-.08a3.93 3.93 0 0 1-2.76-1.7 2.69 2.69 0 0 1-.38-2.21c.36-1.32 1.4-1.86 2.54-2.4.5.02.97.04 1.45.14.9.19 1.67.77 2.14 1.56.42.7.51 1.53.29 2.32-.37 1.3-1.15 1.78-2.28 2.37ZM58.82 419.18c-.26-11.87-.09-23.79-.1-35.66 6.44-.04 16.44-1.1 22.1 2.04a11.6 11.6 0 0 1 5.76 7.4l.13.62q.06.31.1.63.05.31.08.63l.04.64v.64l-.02.63-.06.64q-.03.32-.08.63-.05.32-.12.63l-.15.62-.18.6q-.1.31-.22.61l-.24.6-.27.57-.3.56-.33.55c-2.17 3.38-5.34 4.68-9.08 5.51-4.03.56-8.45.19-12.52.13l-.1 10.81-4.44-.03Zm4.73-31.66c-.74 4.16-.11 12.34-.14 16.98 5.57.04 11.36.83 16.24-2.37 1.79-1.93 2.62-3.84 2.5-6.5-.08-2.1-.66-4.11-2.27-5.56-4.08-3.69-11.22-2.14-16.33-2.55ZM253.97 419.25l.05-35.69c6.97-.04 17.58-1.27 23.57 2.64q.24.15.46.32.23.16.45.34.22.17.43.36.21.18.41.38l.4.4.37.42.35.44.32.46q.16.23.3.47l.29.48.26.5.23.51.2.52.18.54q.09.26.16.54l.12.54c.65 3.14.07 6.7-1.73 9.38-2.12 3.13-5.27 4.51-8.83 5.23-4.2.68-8.6.38-12.85.3l-.03 10.92h-5.11Zm5.25-31.85.01 17.12c5.2.04 12.2.97 16.48-2.5 1.6-1.68 2.58-3.4 2.5-5.79-.1-2.26-.8-4.63-2.5-6.21-3.83-3.58-11.61-2.64-16.49-2.62ZM220.72 392.83q-.02-3.44.05-6.87c1.45-.05 2.91 0 4.37.03v6.78q4.22-.05 8.44.03l-.03 3.58-8.42.02c.04 3.59-.73 15.4.82 17.9 1.5 2.43 4.47.04 6.46.66.4.13.7.97.9 1.35l.04.1c.3.8.33.84.02 1.62-1.46 1.37-3.55 1.6-5.49 1.58a6.89 6.89 0 0 1-5.03-2.1 8.02 8.02 0 0 1-1.96-3.98c-.73-3.64-.15-12.89-.12-17.15l-5.18.03v-3.58h5.13ZM375.49 392.54l.02-5.9 4.1-.05-.01 6.03q3.65 0 7.3.08l-.02 3.58h-7.27c-.1 4.54-.34 9.14-.18 13.67.06 1.62.13 4.18 1.54 5.25 1.66 1.26 4.12-.07 5.93-.16l.75.78.51.98c-.08.63-.1.92-.6 1.38-1 .93-3.65 1.36-4.98 1.36-1.8-.01-3.37-.56-4.65-1.86a9.36 9.36 0 0 1-2.26-4.22c-1.04-4.1-.43-12.74-.41-17.26h-3.86l-.04-3.62 4.13-.04Z"/>
  <path fill="#1F2A51" d="M63.4 404.5c.04-4.64-.6-12.82.15-16.98 5.1.41 12.25-1.14 16.33 2.55 1.6 1.45 2.19 3.46 2.28 5.55.11 2.67-.72 4.58-2.51 6.51-4.88 3.2-10.67 2.4-16.24 2.37ZM259.23 404.52l-.01-17.12c4.88-.02 12.66-.96 16.49 2.62 1.7 1.58 2.4 3.95 2.5 6.21.08 2.4-.9 4.1-2.5 5.79-4.28 3.47-11.29 2.54-16.48 2.5Z"/>
  <path fill="#FBFCF9" d="m295.11 397.3.16-.25c2.33-3.32 4.52-4.46 8.43-5.18l.45.11c.4 1.27.2 2.83.18 4.15-2.35.45-4.66.95-6.47 2.63q-.42.4-.78.85-.36.45-.65.95-.3.5-.51 1.03-.23.54-.37 1.1c-.96 3.6-.42 12.15-.46 16.2l-4.48-.05v-3.59l-.04-22.92 4.59-.01-.05 4.97ZM329.65 416.06a12.8 12.8 0 0 1-5.93 3.28 13 13 0 0 1-9.66-1.87 13.49 13.49 0 0 1-5.98-8.95c-.72-3.7-.04-7.75 2.12-10.87 2.18-3.16 5.49-4.87 9.19-5.5 7.9-.42 9.7 4 11.38 4.2.4-1.22.25-2.63.23-3.9 1.48-.07 2.96 0 4.44.03l-.03 26.77h-4.16v-4.97l-1.6 1.78Zm-8.5-20.02a9.3 9.3 0 0 0-6.51 3.46l-.31.4-.29.41q-.14.21-.26.43l-.25.44-.22.45-.2.46-.17.48-.15.48-.13.48-.1.5-.07.5-.05.5-.03.5v.5l.03.5.05.5q.06.47.17.93.1.46.25.91t.35.88q.2.43.43.84.23.41.5.8.28.38.6.74.3.36.65.68.34.32.72.61c2.04 1.55 4.21 1.99 6.72 1.97 2.84-.53 5.15-1.43 6.8-3.97 1.61-2.46 1.85-5.79 1.13-8.59a8.74 8.74 0 0 0-4.34-5.64 11.04 11.04 0 0 0-5.32-1.15ZM366.54 414.68a12.15 12.15 0 0 1-6.54 4.4c-3.58.96-7.9.49-11.05-1.46l-.55-.37-.53-.39-.5-.41-.49-.44-.46-.47-.44-.48-.41-.51-.39-.53q-.19-.27-.36-.55-.18-.27-.34-.56l-.3-.58-.28-.6-.24-.6q-.12-.3-.22-.62-.1-.31-.18-.63-.09-.32-.15-.64c-.84-3.9-.04-8.23 2.2-11.52 2.26-3.3 5.53-4.92 9.35-5.6q1.61-.14 3.23-.02c3.43.24 6.5 1.87 8.72 4.46-.85 1.06-1.75 2.09-2.63 3.13a9.18 9.18 0 0 0-3.99-3.37 9.57 9.57 0 0 0-7.14.12 8.93 8.93 0 0 0-4.73 4.99 11.9 11.9 0 0 0 .08 8.94 9.19 9.19 0 0 0 5.12 5.12c2.7 1 5.3.44 7.8-.74 1.1-.9 1.89-1.8 2.7-2.94.97.9 1.84 1.88 2.72 2.87ZM97.33 397.32q.34-.52.7-1.03c2.02-2.83 4.5-3.35 7.73-3.88a2.5 2.5 0 0 1 1.08.05c.64 1.02.33 3 .28 4.19-2.58.33-5.26.68-7.22 2.56-3.7 3.54-2.56 14.76-2.56 19.66-1.27-.01-2.52.3-3.76-.08-.62-.61-.48-.97-.53-1.82l.04-24.36 4.23-.02v4.73ZM126.14 419.13c-3.65.24-7.11-.4-10.1-2.65q-.28-.2-.54-.42l-.51-.45-.49-.47-.46-.5-.44-.52-.4-.54-.4-.56-.35-.57-.32-.6q-.16-.3-.3-.61-.14-.3-.26-.62-.13-.32-.23-.64-.11-.32-.2-.65-.1-.33-.17-.66l-.14-.66-.1-.67c-.46-3.55.54-7.32 2.78-10.11 2.4-3 5.59-4.34 9.3-4.82a14.4 14.4 0 0 1 10.08 2.53l.53.41q.26.21.51.44l.5.46.46.49.44.5.42.54.39.55.36.57.33.58.3.6q.15.3.28.62l.25.63.21.64.19.65.15.65.11.67q.05.33.08.67l.05.67v.68l-.01.68q-.02.34-.06.67-.03.34-.09.67-.05.34-.12.67-.06.33-.15.66-.08.33-.18.65l-.22.64-.25.63-.28.62-.3.6-.35.59-.36.56-.4.55c-2.4 3.16-5.71 4.5-9.54 4.98Zm-3.25-22.61c-2.53.55-4.59 1.58-6.06 3.8a10.35 10.35 0 0 0-1.2 7.88 9.2 9.2 0 0 0 4.18 5.87c2.14 1.27 4.4 1.4 6.8 1.09 2.65-.8 4.62-1.97 6-4.48 1.38-2.51 1.68-5.73.75-8.44a8.45 8.45 0 0 0-4.34-4.95 11 11 0 0 0-6.13-.77ZM139.56 421.14c.84.37 1.7.77 2.65.82 1 .04 1.93-.2 2.66-.92.86-.86 1.11-2.02 1.28-3.19.42-2.93.15-6.18.14-9.15l-.07-16.43c1.52.28 3.08.12 4.6.04l.07 16.6c.01 3.41.33 7.12-.29 10.48a7.68 7.68 0 0 1-1.8 3.98c-1.63 1.78-3.88 2.3-6.2 2.44a15.67 15.67 0 0 1-4.33-1.38l1.29-3.3ZM181.9 414.8a12.33 12.33 0 0 1-6.4 3.99c-3.93 1.01-8.5.54-11.99-1.56a12.5 12.5 0 0 1-5.74-8.33c-.77-3.7-.21-7.79 1.93-10.96 2.13-3.16 5.26-4.8 8.9-5.58l1.37-.06c3.75-.11 7.59.8 10.33 3.5 3.37 3.33 3.72 7.61 3.7 12.05l-22.06-.02c.9 2.72 2.15 4.97 4.78 6.35 3.06 1.61 6.31 1.2 9.48.24 1.3-.55 2.48-1.3 3.68-2.04l2.02 2.41ZM169.49 396c-2.56.57-4.57 1.42-6 3.76a14.97 14.97 0 0 0-1.63 4.46h18.07c-.79-2.9-1.78-5.45-4.52-7.06-1.87-1.1-3.81-1.27-5.92-1.16ZM212.15 413.91c-.3.46-.6.92-.93 1.35a11.05 11.05 0 0 1-7.7 4.2c-3.62.36-7.24-.6-10.03-2.98-2.8-2.38-4.5-5.9-4.77-9.55l-.04-.68v-.67q0-.34.03-.67l.07-.68.1-.66q.05-.34.12-.67l.16-.65.2-.65.22-.64.26-.62q.13-.31.28-.61l.32-.6q.16-.3.34-.58l.37-.57.4-.54q.2-.27.42-.53c2.74-3.17 6.16-4.2 10.17-4.46 1.3.08 2.6.26 3.83.63 2.84.85 4.57 2.45 5.92 5.04-.98.75-2.07 1.38-3.1 2.04a9.24 9.24 0 0 0-5.89-3.49 8.61 8.61 0 0 0-6.51 2.06 9.15 9.15 0 0 0-3.24 6.62l-.02.5.01.52.04.5q.02.26.06.51l.09.5.1.5.15.5.16.48.19.47.2.47.24.45.25.44.28.43.3.41.32.4.34.38a8.1 8.1 0 0 0 5.97 2.64c2.72-.05 4.67-1.42 6.49-3.28.33-.46.12-.27.66-.56 1.2.45 2.2 1.49 3.17 2.3ZM394.39 392.62c1.26 0 2.5-.08 3.76-.16.28-.07.56-.04.84-.03.69 1.17.24 24.21.23 27.3h-3.6c-.58-.02-.6.06-1.07-.34-.53-2.69-.18-5.98-.18-8.75l.02-18.02ZM431.97 414.96a14.86 14.86 0 0 1-7.88 5.03l-.69.13-.7.1-.7.08-.7.03h-.7q-.36 0-.7-.02l-.7-.07q-.36-.04-.7-.1-.35-.05-.7-.13l-.68-.16-.68-.2q-.33-.1-.66-.23l-.66-.26-.64-.3q-.32-.15-.62-.32l-.61-.35q-.3-.18-.59-.38l-.56-.41-.54-.44q-.27-.23-.52-.47l-.5-.49-.47-.51-.44-.54q-.22-.27-.42-.56-.2-.28-.38-.58-.2-.3-.36-.6-.18-.3-.33-.61-.16-.31-.3-.63l-.27-.65-.23-.65-.2-.67-.17-.68a14.76 14.76 0 0 1 1.85-11.02c2.25-3.51 5.53-5.06 9.46-5.93 3.14-.28 6.58-.23 9.43 1.3 1.17.64 2.9 1.9 3.16 3.32.13.69 0 .92-.34 1.48-.67.4-1.72.79-2.5.48-1.04-.42-2.06-1.14-3.1-1.61-2.46-1.12-4.73-1.64-7.34-.59a9.72 9.72 0 0 0-5.17 5.35c-1 2.44-1.17 5.59-.08 8.03a9.7 9.7 0 0 0 5.86 5.49c2.9.97 5.3.36 7.93-.97l2.86-2.05 2.98 2.36ZM459.92 415.06a11.67 11.67 0 0 1-6.76 4.6c-3.97 1-8.35.73-11.9-1.46l-.58-.39-.57-.41-.54-.45q-.27-.22-.53-.46l-.5-.5q-.24-.25-.47-.52-.23-.26-.45-.54-.22-.27-.42-.56l-.4-.58-.36-.6-.33-.62q-.16-.31-.3-.63-.15-.32-.27-.65l-.24-.66q-.11-.33-.2-.67l-.18-.68q-.08-.34-.14-.69-.07-.35-.11-.7-.05-.34-.08-.7l-.04-.7v-.7q0-.35.03-.7l.06-.7.1-.7.14-.68q.07-.35.16-.69l.2-.67.24-.66q.12-.33.26-.65l.3-.64.33-.62.36-.6c2.17-3.41 5.28-5.26 9.18-6.1 1.2-.13 2.47-.22 3.66-.15 3.23.18 6.34 1.34 8.48 3.84 2.8 3.27 3.2 7.29 2.85 11.4-7 .4-14.16-.05-21.19.11.27 1.27.53 2.52 1.17 3.66a9.21 9.21 0 0 0 5.69 4.5c3.08.82 5.81-.02 8.46-1.6.66-.52 1.25-1.12 1.86-1.69.95.99 1.94 1.79 3.03 2.6ZM447.15 396c-2.33.46-4.25 1.27-5.63 3.3a12.31 12.31 0 0 0-1.75 4.66c3.37.33 6.8.22 10.18.22h6.79c-.79-2.8-1.5-5.63-4.21-7.18a9.49 9.49 0 0 0-5.38-1Z"/>
  <path fill="#1F2A51" d="M161.86 404.23c.35-1.53.8-3.1 1.63-4.46 1.43-2.34 3.44-3.19 6-3.76 2.1-.1 4.05.06 5.92 1.16 2.74 1.6 3.73 4.16 4.52 7.06h-18.07ZM322.88 415.4c-2.51 0-4.68-.43-6.72-1.98q-.38-.29-.72-.61-.34-.32-.66-.68-.3-.36-.58-.74-.28-.39-.51-.8-.24-.4-.43-.84-.2-.43-.35-.88-.15-.45-.25-.9-.1-.47-.17-.94l-.05-.5-.03-.5v-.5l.03-.5.05-.5.07-.5.1-.5.13-.48.15-.48.17-.48.2-.46q.1-.23.22-.45l.25-.44q.12-.22.26-.43l.29-.41.3-.4a9.3 9.3 0 0 1 6.52-3.46c1.84 0 3.68.27 5.32 1.15a8.74 8.74 0 0 1 4.34 5.64c.72 2.8.48 6.13-1.12 8.59-1.66 2.54-3.97 3.44-6.81 3.97ZM439.77 403.97c.33-1.65.79-3.27 1.75-4.67 1.38-2.02 3.3-2.83 5.63-3.3 1.8-.14 3.8.11 5.38 1.01 2.7 1.55 3.42 4.39 4.2 7.17l-6.78.01c-3.38 0-6.81.11-10.18-.22ZM126.62 415.16c-2.4.31-4.67.18-6.8-1.09a9.2 9.2 0 0 1-4.2-5.87 10.35 10.35 0 0 1 1.21-7.88c1.47-2.22 3.53-3.25 6.06-3.8a11 11 0 0 1 6.13.77c2.08.98 3.6 2.79 4.34 4.95.93 2.71.63 5.93-.75 8.44s-3.35 3.68-6 4.48Z"/>
  <path fill="#96D3AD" d="M89.46 466.06a15.53 15.53 0 0 1-10.25 6.5c-5.17.95-10.85.06-15.2-2.98a15.32 15.32 0 0 1-6.42-10.15c-.82-4.67 0-9.59 2.8-13.48 3.1-4.3 7.69-6.19 12.78-6.96a18.4 18.4 0 0 1 4.9.04c4.61.6 8.27 2.77 11.09 6.47-2 1.64-3.9 3.2-5.72 5.05-2.43-2.16-5.02-4.05-8.43-3.93q-.4.02-.82.07-.4.06-.8.15-.4.1-.8.23-.38.14-.75.3-.38.18-.73.39-.36.2-.69.45-.33.24-.64.52-.3.27-.58.58a9.81 9.81 0 0 0-2.41 7.43 8.83 8.83 0 0 0 3.2 6.33c2.13 1.64 5.04 2.03 7.63 1.57a7.98 7.98 0 0 0 5.49-3.74c.64.49 1.27 1 1.9 1.5q2.27 1.79 4.45 3.66ZM112.93 472.8c-5.1.2-9.95-.4-14.12-3.59a16.46 16.46 0 0 1-6.27-11.04c-.56-4.33.5-9.15 3.26-12.59 3.48-4.35 8.3-6 13.67-6.57 4.43-.32 9.18.8 12.82 3.37l.67.49.64.52.6.55q.3.28.59.58l.55.6.53.64.49.66.46.68.42.7.39.73.35.75q.17.37.32.76l.27.77.24.79.2.8.16.8q.07.4.11.8l.08.8.04.82v.8l-.05.81-.08.8-.13.8-.16.8-.2.78q-.11.39-.24.77-.13.39-.28.76-.15.38-.32.75-.16.37-.35.73-.18.35-.39.7l-.42.7-.45.66c-3.33 4.67-7.93 6.43-13.4 7.31Zm-3.8-25.82c-2.56.78-4.6 1.93-5.96 4.37q-.23.41-.42.85-.19.43-.33.88-.14.46-.24.92-.1.46-.15.94-.05.47-.06.94 0 .48.04.95t.12.94q.1.46.23.92.11.4.26.8.16.38.35.75.2.38.42.73.23.35.5.68.26.32.55.62.3.3.61.57.33.27.67.5.35.24.72.44c1.92 1.04 3.81 1.1 5.94.96 2.5-.55 4.58-1.57 5.95-3.83a10.06 10.06 0 0 0 .87-7.77 8.44 8.44 0 0 0-4.05-5.2c-1.98-1.07-3.85-1.07-6.01-.96ZM374.01 472.71c-4.98.57-10.37-.48-14.5-3.39a16.8 16.8 0 0 1-7.04-10.96q-.06-.4-.1-.82l-.08-.83-.02-.83.01-.84.06-.83q.03-.41.1-.82.05-.42.13-.82l.18-.82.22-.8q.12-.4.26-.79.14-.4.3-.78l.34-.76q.17-.37.37-.74l.41-.72.45-.7q.23-.35.48-.69c3.15-4.24 7.51-5.99 12.59-6.78 5.36-.52 10.66.04 15.14 3.26q.33.23.65.48l.62.51.59.54q.29.28.56.58l.54.6q.26.3.5.62.25.32.48.65l.44.68.4.7q.2.34.37.7l.34.74.3.75.25.76q.12.38.22.77l.19.78.14.8c.7 4.45-.28 9.43-3 13.07-3.06 4.08-7.97 6.1-12.89 6.73Zm-4.22-26.24c-2.54.53-4.6 1.38-6.1 3.64a10.34 10.34 0 0 0-1.27 7.78 8.99 8.99 0 0 0 4.1 5.9c1.91 1.13 4.03 1.4 6.2 1.22 2.7-.6 4.88-1.79 6.34-4.21a10 10 0 0 0 .97-7.87 8.99 8.99 0 0 0-4.52-5.57 10.27 10.27 0 0 0-5.72-.89ZM436.22 462.46c4.49 2.05 8.56 3.7 13.63 3.1a5.51 5.51 0 0 0 3.6-1.9c.35-.48.3-.62.24-1.18-2.31-2.84-11.6-3.32-15.6-5.94a8.2 8.2 0 0 1-3.76-5.28c-.49-2.46.22-5.45 1.67-7.49 2.42-3.38 6.56-4.22 10.4-4.77 5-.78 10.8.42 15.23 2.75-.9 2.28-1.73 4.6-2.9 6.76-3.8-1.83-7.65-3.07-11.93-2.6-1.15.12-2.23.8-2.92 1.72-.5.65-.56 1.1-.47 1.9 1.71 2.78 11.6 2.92 15.86 5.8 1.83 1.24 3.27 3.04 3.6 5.29.39 2.7-.26 5.2-1.95 7.3-3.26 4.05-7.51 4.7-12.35 5.15-5.14-.08-10.9-1-15.21-3.99.88-2.24 1.85-4.43 2.86-6.62ZM284.91 472.19c0-3.67-.41-31.65.19-32.76l.57-.14h8.81v23.08c0 2.8.46 6.94-.09 9.6l-.44.24-9.04-.02ZM135.6 472.3q-.05-16.42.08-32.84c2.32-.07 4.65-.01 6.98 0 4.55 6.48 7.82 14 12.8 20.14 3.49-6.86 7.74-13.6 11.68-20.21l7.34.03.1 32.87c-2.77.03-5.75.28-8.5-.1-.41-.62-.31-1.19-.35-1.9-.02-5.18.12-10.36-.06-15.54q-3.88 7.4-8.35 14.44l-4.39-.05c-3.09-4.51-6.15-9.25-8.52-14.19v17.36h-8.81ZM182.49 472.15l-.05-32.73c6.16-.02 17.28-.87 22.8 1.2 3.05 1.14 5.87 3.34 7.15 6.39a12.93 12.93 0 0 1-.1 9.44c-1.48 3.59-4.44 5.5-7.88 6.88-4.01 1.17-8.21.92-12.34.9l-.02 8q-4.78-.01-9.56-.08Zm9.74-25.47-.05 10.34c3.52.04 6.78.46 9.86-1.58 1-1.36 1.54-2.62 1.3-4.34-.2-1.37-.8-2.6-1.99-3.37-2.38-1.56-6.35-1.08-9.12-1.05ZM218.85 472.2l-.04-32.77 26.38-.01c.06 2.41 0 4.83-.02 7.24l-16.9-.03v5.5l15.47-.02.01 6.99-14.53-.08c-.62.03-.35-.08-.82.35-.27 1.82-.12 3.72-.08 5.56q8.77-.11 17.55-.06l.02 7.2c-9.01-.06-18.03.07-27.04.13ZM248.87 446.81l-.05-7.42c10.43-.14 20.9-.01 31.33-.01l-.01 7.31-11.2-.01v14.87l-.02 10.6q-4.68.03-9.36-.03l-.01-25.4-10.68.1ZM299.74 446.72l-.02-7.3 31.08-.04.02 7.42-10.68-.02-.03 15.03v10.46l-9.59.04c-.1-8.55 0-17.1 0-25.64l-10.78.05ZM335.9 472.16l-.1-32.73 9.9-.02.02 32.73-9.83.02ZM395.99 472.32c-.14-10.97.03-21.95.02-32.92l7.83-.03c2.13 2.8 4.58 5.35 6.83 8.05 2.67 3.18 5.19 6.56 8.07 9.56v-17.59l9.3-.05v32.9c-2.66.24-5.38.16-8.06.18A431.53 431.53 0 0 1 405.33 455v17.34l-9.34-.02Z"/>
  <path fill="#1F2A51" d="M372.72 465.01c-2.17.18-4.29-.09-6.2-1.21a8.99 8.99 0 0 1-4.1-5.9c-.57-2.6-.22-5.55 1.26-7.8 1.5-2.25 3.57-3.1 6.11-3.63 1.97-.19 3.93-.01 5.72.9a8.99 8.99 0 0 1 4.52 5.56 10 10 0 0 1-.97 7.87c-1.46 2.42-3.65 3.6-6.34 4.21ZM192.18 457.02l.05-10.34c2.77-.03 6.74-.51 9.12 1.05 1.18.77 1.8 2 1.99 3.37.24 1.72-.3 2.98-1.3 4.34-3.08 2.04-6.34 1.62-9.86 1.58ZM112.38 464.74c-2.13.13-4.02.08-5.94-.96q-.37-.2-.72-.43-.34-.24-.67-.5-.32-.28-.61-.58-.3-.3-.56-.62-.26-.33-.49-.68-.23-.35-.42-.73-.19-.37-.35-.76-.15-.39-.26-.79-.14-.46-.23-.92-.08-.47-.12-.94-.05-.47-.04-.95 0-.47.06-.94.05-.48.15-.94.1-.46.24-.92.14-.45.33-.88.19-.44.42-.85c1.36-2.44 3.4-3.6 5.97-4.37 2.16-.1 4.03-.1 6 .96 2.04 1.1 3.44 3 4.06 5.2.71 2.53.5 5.5-.87 7.77-1.37 2.26-3.45 3.28-5.95 3.83Z"/>
</svg>
